<svg width="256" height="283" viewBox="0 0 256 283" xmlns="http://www.w3.org/2000/svg" preserveAspectRatio="xMinYMin meet"><path d="M128.338.078c-6.7 0-13.403 1.733-19.408 5.2L20.244 56.48A38.821 38.821 0 0 0 .836 90.097v102.407a38.813 38.813 0 0 0 19.408 33.615l88.686 51.204a38.802 38.802 0 0 0 19.408 5.2 38.802 38.802 0 0 0 19.408-5.2l88.686-51.204a38.815 38.815 0 0 0 19.41-33.615V90.096c0-13.867-7.4-26.68-19.41-33.615L147.746 5.28a38.792 38.792 0 0 0-19.408-5.2" fill="#FFF"/><path d="M236.432 56.482L147.746 5.278a38.815 38.815 0 0 0-38.816 0L20.244 56.482A38.814 38.814 0 0 0 .836 90.096v102.407a38.813 38.813 0 0 0 19.408 33.615l88.686 51.204a38.815 38.815 0 0 0 38.816 0l88.686-51.204a38.815 38.815 0 0 0 19.41-33.615V90.096c0-13.867-7.4-26.68-19.41-33.614zm7.21 131.123a35.1 35.1 0 0 1-17.55 30.398L145.89 264.31a35.106 35.106 0 0 1-35.103 0l-80.202-46.307a35.1 35.1 0 0 1-17.55-30.398v-92.61c0-12.54 6.69-24.13 17.55-30.398l80.202-46.305a35.104 35.104 0 0 1 35.102 0l80.202 46.305a35.1 35.1 0 0 1 17.55 30.398v92.61z" fill="#298AEC"/><path d="M73.68 109.916h112.986v9.905H73.68v-9.904zm0 33.308h112.986v9.905H73.68v-9.906zm0 33.199h112.986v9.905H73.68v-9.905z" fill="#44546C"/></svg>