<svg width="256" height="269" viewBox="0 0 256 269" xmlns="http://www.w3.org/2000/svg" preserveAspectRatio="xMinYMin meet"><path d="M219.368 74.566a104.76 104.76 0 0 0-25.6-25.418l-8.536 12.203a89 89 0 0 0-13.43-7.72l-6.297 13.516a73.978 73.978 0 0 1 11.185 6.417 74.853 74.853 0 0 1 9.928 8.25l-10.52 10.53-10.53 10.533a44.36 44.36 0 0 1 5.03 5.876 44.397 44.397 0 0 1 3.965 6.658l26.973-12.59 13.494-6.297 13.487-6.297a104.156 104.156 0 0 0-9.15-15.66zm24.384-17.084A134.866 134.866 0 0 0 228.71 39.68a134.538 134.538 0 0 0-38.037-26.555 133.293 133.293 0 0 0-21.875-7.932 133.315 133.315 0 0 0-22.913-4l-1.295 14.84c6.974.598 13.777 1.8 20.354 3.548l-3.85 14.394a103.568 103.568 0 0 1 16.993 6.156 103.724 103.724 0 0 1 15.68 9.018 104.837 104.837 0 0 1 25.6 25.418 104.156 104.156 0 0 1 9.15 15.66l13.485-6.296 13.49-6.296a134.214 134.214 0 0 0-11.74-20.152zM178.087 40.13a103.568 103.568 0 0 0-16.993-6.156 103.61 103.61 0 0 0-17.803-3.104c-2.98-.257-5.987-.395-9.032-.395a105 105 0 0 0-9.036.395 103.62 103.62 0 0 0-17.8 3.104l3.85 14.39a88.338 88.338 0 0 0-14.557 5.267l6.293 13.518a74.33 74.33 0 0 1 12.118-4.39 74.667 74.667 0 0 1 12.694-2.197 74.22 74.22 0 0 1 6.438-.295c2.17 0 4.313.11 6.44.296a74.59 74.59 0 0 1 12.688 2.198 73.79 73.79 0 0 1 12.12 4.388l6.297-13.515a89 89 0 0 1 13.43 7.72l8.535-12.202a103.724 103.724 0 0 0-15.68-9.018zM144.59 16.033l1.295-14.84c-3.833-.33-7.71-.507-11.627-.507-3.917 0-7.792.178-11.625.508a133.415 133.415 0 0 0-22.917 4 132.687 132.687 0 0 0-21.872 7.936 133.644 133.644 0 0 0-20.17 11.618 134.654 134.654 0 0 0-17.87 14.932l10.523 10.532A119.63 119.63 0 0 1 66.21 36.948l8.536 12.204a103.698 103.698 0 0 1 32.677-15.178 103.62 103.62 0 0 1 17.8-3.104 105 105 0 0 1 9.035-.395c3.045 0 6.053.138 9.033.395 6.1.526 12.05 1.57 17.804 3.104l3.85-14.393a118.663 118.663 0 0 0-20.354-3.547zm-33.317 32.33l-3.85-14.39a103.698 103.698 0 0 0-32.678 15.178 104.7 104.7 0 0 0-13.898 11.592A105.368 105.368 0 0 0 49.144 74.57l12.192 8.542a89.008 89.008 0 0 0-7.85 13.41l13.496 6.298a74.47 74.47 0 0 1 6.558-11.153 75.25 75.25 0 0 1 8.355-9.855 74.958 74.958 0 0 1 9.925-8.25 74.243 74.243 0 0 1 11.188-6.414L96.715 53.63a88.338 88.338 0 0 1 14.558-5.266zM66.21 36.95a119.63 119.63 0 0 0-15.883 13.264L39.804 39.68a134.805 134.805 0 0 0-15.038 17.805A133.673 133.673 0 0 0 4.953 99.542a134.158 134.158 0 0 0-4.13 22.995l14.825 1.3c.64-7.005 1.88-13.836 3.682-20.44l14.373 3.857A103.297 103.297 0 0 1 40 90.226a103.938 103.938 0 0 1 9.144-15.655c3.503-4.945 7.42-9.57 11.703-13.827a104.7 104.7 0 0 1 13.9-11.59L66.21 36.947zM39.546 178.43a103.862 103.862 0 0 1-6.138-17.158 103.667 103.667 0 0 1-3.04-17.95 105.256 105.256 0 0 1-.347-8.51c0-3.264.16-6.494.456-9.678.56-6.13 1.65-12.106 3.227-17.88l-14.373-3.857a118.572 118.572 0 0 0-3.682 20.44l-14.824-1.3a136.827 136.827 0 0 0-.562 12.275c0 3.74.16 7.443.455 11.103.652 7.904 1.98 15.61 3.935 23.068a133.57 133.57 0 0 0 7.918 22.038 133.922 133.922 0 0 0 11.647 20.33l12.192-8.546a118.943 118.943 0 0 1-10.35-18.08l13.486-6.294zm20.49-37.71a74.91 74.91 0 0 1-.252-5.908c0-2.39.124-4.75.34-7.08a74.285 74.285 0 0 1 2.348-12.765 73.956 73.956 0 0 1 4.51-12.147l-13.495-6.297a89.008 89.008 0 0 1 7.85-13.41L49.143 74.57A103.938 103.938 0 0 0 40 90.227a103.297 103.297 0 0 0-6.297 17.028 103.766 103.766 0 0 0-3.227 17.88 104.588 104.588 0 0 0-.455 9.678c0 2.865.12 5.702.348 8.51a103.667 103.667 0 0 0 3.04 17.95l14.377-3.857a88.495 88.495 0 0 0 5.248 14.715l13.503-6.3a74.155 74.155 0 0 1-4.372-12.273 74.055 74.055 0 0 1-2.127-12.836zm29.936 88.56a103.848 103.848 0 0 1-15.78-9.192A104.945 104.945 0 0 1 60.26 208.29a104.868 104.868 0 0 1-11.66-14.03 104.285 104.285 0 0 1-9.054-15.83l-13.485 6.294a118.943 118.943 0 0 0 10.35 18.08l-12.193 8.545a134.715 134.715 0 0 0 32.905 33.14 134.187 134.187 0 0 0 20.268 11.794l6.294-13.5c6.25 2.94 12.8 5.352 19.59 7.177l3.85-14.39a103.146 103.146 0 0 1-17.152-6.29zm12.58-27.008a74.313 74.313 0 0 1-11.277-6.604 74.67 74.67 0 0 1-9.967-8.446 74.932 74.932 0 0 1-14.772-21.39l-13.503 6.298a88.495 88.495 0 0 1-5.248-14.715l-14.377 3.857a103.862 103.862 0 0 0 6.138 17.158 104.285 104.285 0 0 0 9.054 15.83c3.473 5.013 7.382 9.707 11.66 14.03a104.945 104.945 0 0 0 13.932 11.798l8.53-12.2a88.797 88.797 0 0 0 13.538 7.89 88.524 88.524 0 0 0 14.72 5.402l3.856-14.4a73.9 73.9 0 0 1-12.283-4.508zm100.308 30.02c-5.663 3.998-11.698 7.514-18.026 10.493a118.377 118.377 0 0 1-19.594 7.176l-3.855-14.39a103.97 103.97 0 0 1-17.99 3.172c-3.014.265-6.06.404-9.137.404-3.08 0-6.13-.14-9.14-.404-6.167-.538-12.178-1.61-17.995-3.173l-3.85 14.39a118.037 118.037 0 0 1-19.59-7.175l-6.293 13.5a133.095 133.095 0 0 0 22.034 8.066 133.75 133.75 0 0 0 23.106 4.068c3.867.337 7.776.518 11.728.518 3.953 0 7.863-.18 11.73-.518a133.826 133.826 0 0 0 23.106-4.067 133.693 133.693 0 0 0 42.302-19.86l-8.537-12.2zm29.25-29.488l-12.193-8.543c-3.476 5.013-7.38 9.71-11.66 14.03a104.963 104.963 0 0 1-13.932 11.798 103.754 103.754 0 0 1-15.783 9.19 102.943 102.943 0 0 1-17.157 6.29l3.855 14.393a118.377 118.377 0 0 0 19.594-7.175 119.423 119.423 0 0 0 18.026-10.494l8.536 12.2a134.587 134.587 0 0 0 32.9-33.14l-12.187-8.546zm-24.38-17.086l-12.196-8.55a74.696 74.696 0 0 1-8.324 10.054 75.326 75.326 0 0 1-9.968 8.446l8.543 12.22a89.082 89.082 0 0 1-13.532 7.892l6.29 13.5a103.754 103.754 0 0 0 15.782-9.192 104.963 104.963 0 0 0 13.93-11.798c4.28-4.32 8.186-9.017 11.662-14.03l-12.187-8.542zm-21.945 22.17l-8.543-12.22a74.04 74.04 0 0 1-11.287 6.604 73.966 73.966 0 0 1-25.155 6.78c-2.16.19-4.338.304-6.542.304-2.203 0-4.385-.115-6.54-.304a74.08 74.08 0 0 1-12.882-2.274l-3.855 14.4a88.524 88.524 0 0 1-14.72-5.402 88.797 88.797 0 0 1-13.537-7.89l-8.53 12.2a103.848 103.848 0 0 0 15.78 9.19 103.146 103.146 0 0 0 17.15 6.29 104.094 104.094 0 0 0 17.996 3.174c3.008.265 6.057.404 9.138.404 3.078 0 6.123-.14 9.136-.404a103.97 103.97 0 0 0 17.99-3.173 102.943 102.943 0 0 0 17.158-6.29l-6.29-13.5a89.082 89.082 0 0 0 13.533-7.893z" fill="#52C1DB"/><path d="M219.368 74.566a104.76 104.76 0 0 0-25.6-25.418l-8.536 12.203a89 89 0 0 0-13.43-7.72l-6.297 13.516a73.978 73.978 0 0 1 11.185 6.417 74.853 74.853 0 0 1 9.928 8.25l-10.52 10.53-10.53 10.533a44.36 44.36 0 0 1 5.03 5.876 44.397 44.397 0 0 1 3.965 6.658l26.973-12.59 13.494-6.297 13.487-6.297a104.156 104.156 0 0 0-9.15-15.66" fill="#52C1DB"/><path d="M243.752 57.482A134.866 134.866 0 0 0 228.71 39.68a134.538 134.538 0 0 0-38.037-26.555 133.293 133.293 0 0 0-21.875-7.932 133.315 133.315 0 0 0-22.913-4l-1.295 14.84c6.974.598 13.777 1.8 20.354 3.548l-3.85 14.394a103.568 103.568 0 0 1 16.993 6.156 103.724 103.724 0 0 1 15.68 9.018 104.837 104.837 0 0 1 25.6 25.418 104.156 104.156 0 0 1 9.15 15.66l13.485-6.296 13.49-6.296a134.214 134.214 0 0 0-11.74-20.152" fill="#3B528A"/><path d="M178.087 40.13a103.568 103.568 0 0 0-16.993-6.156 103.61 103.61 0 0 0-17.803-3.104c-2.98-.257-5.987-.395-9.032-.395a105 105 0 0 0-9.036.395 103.62 103.62 0 0 0-17.8 3.104l3.85 14.39a88.338 88.338 0 0 0-14.557 5.267l6.293 13.518a74.33 74.33 0 0 1 12.118-4.39 74.667 74.667 0 0 1 12.694-2.197 74.22 74.22 0 0 1 6.438-.295c2.17 0 4.313.11 6.44.296a74.59 74.59 0 0 1 12.688 2.198 73.79 73.79 0 0 1 12.12 4.388l6.297-13.515a89 89 0 0 1 13.43 7.72l8.535-12.202a103.724 103.724 0 0 0-15.68-9.018" fill="#00AEE8"/><path d="M144.59 16.033l1.295-14.84c-3.833-.33-7.71-.507-11.627-.507-3.917 0-7.792.178-11.625.508a133.415 133.415 0 0 0-22.917 4 132.687 132.687 0 0 0-21.872 7.936 133.644 133.644 0 0 0-20.17 11.618 134.654 134.654 0 0 0-17.87 14.932l10.523 10.532A119.63 119.63 0 0 1 66.21 36.948l8.536 12.204a103.698 103.698 0 0 1 32.677-15.178 103.62 103.62 0 0 1 17.8-3.104 105 105 0 0 1 9.035-.395c3.045 0 6.053.138 9.033.395 6.1.526 12.05 1.57 17.804 3.104l3.85-14.393a118.663 118.663 0 0 0-20.354-3.547" fill="#3F8ABD"/><path d="M111.273 48.364l-3.85-14.39a103.698 103.698 0 0 0-32.678 15.178 104.7 104.7 0 0 0-13.898 11.59 105.368 105.368 0 0 0-11.703 13.83l12.192 8.54a89.008 89.008 0 0 0-7.85 13.41l13.496 6.298a74.47 74.47 0 0 1 6.558-11.153 75.25 75.25 0 0 1 8.355-9.855 74.958 74.958 0 0 1 9.925-8.25 74.243 74.243 0 0 1 11.188-6.414L96.715 53.63a88.338 88.338 0 0 1 14.558-5.266" fill="#52C1DB"/><path d="M66.21 36.948a119.63 119.63 0 0 0-15.883 13.264L39.804 39.68a134.805 134.805 0 0 0-15.038 17.805A133.673 133.673 0 0 0 4.953 99.542a134.158 134.158 0 0 0-4.13 22.995l14.825 1.3c.64-7.005 1.88-13.836 3.682-20.44l14.373 3.857A103.297 103.297 0 0 1 40 90.226a103.938 103.938 0 0 1 9.144-15.655c3.503-4.945 7.42-9.57 11.703-13.827a104.7 104.7 0 0 1 13.9-11.59L66.21 36.947" fill="#00AEE8"/><path d="M39.546 178.43a103.862 103.862 0 0 1-6.138-17.158 103.667 103.667 0 0 1-3.04-17.95 105.256 105.256 0 0 1-.347-8.51c0-3.264.16-6.494.456-9.678.56-6.13 1.65-12.106 3.227-17.88l-14.373-3.857a118.572 118.572 0 0 0-3.682 20.44l-14.824-1.3a136.827 136.827 0 0 0-.562 12.275c0 3.74.16 7.443.455 11.103.652 7.904 1.98 15.61 3.935 23.068a133.57 133.57 0 0 0 7.918 22.038 133.922 133.922 0 0 0 11.647 20.33l12.192-8.546a118.943 118.943 0 0 1-10.35-18.08l13.486-6.294" fill="#3F8ABD"/><path d="M60.037 140.72a74.91 74.91 0 0 1-.253-5.908c0-2.39.124-4.75.34-7.08a74.285 74.285 0 0 1 2.348-12.765 73.956 73.956 0 0 1 4.51-12.147l-13.495-6.297a89.008 89.008 0 0 1 7.85-13.41L49.143 74.57A103.938 103.938 0 0 0 40 90.227a103.297 103.297 0 0 0-6.297 17.028 103.766 103.766 0 0 0-3.227 17.88 104.588 104.588 0 0 0-.455 9.678c0 2.865.12 5.702.348 8.51a103.667 103.667 0 0 0 3.04 17.95l14.377-3.857a88.495 88.495 0 0 0 5.248 14.715l13.503-6.3a74.155 74.155 0 0 1-4.372-12.273 74.055 74.055 0 0 1-2.127-12.836" fill="#3B528A"/><path d="M89.972 229.28a103.848 103.848 0 0 1-15.78-9.192A104.945 104.945 0 0 1 60.26 208.29a104.868 104.868 0 0 1-11.66-14.03 104.285 104.285 0 0 1-9.054-15.83l-13.485 6.294a118.943 118.943 0 0 0 10.35 18.08l-12.193 8.545a134.715 134.715 0 0 0 32.905 33.14 134.187 134.187 0 0 0 20.268 11.794l6.294-13.5c6.25 2.94 12.8 5.352 19.59 7.177l3.85-14.39a103.146 103.146 0 0 1-17.152-6.29" fill="#52C1DB"/><path d="M102.553 202.272a74.313 74.313 0 0 1-11.278-6.604 74.67 74.67 0 0 1-9.967-8.446 74.932 74.932 0 0 1-14.772-21.39l-13.503 6.298a88.495 88.495 0 0 1-5.248-14.715l-14.377 3.857a103.862 103.862 0 0 0 6.138 17.158 104.285 104.285 0 0 0 9.054 15.83c3.473 5.013 7.382 9.707 11.66 14.03a104.945 104.945 0 0 0 13.932 11.798l8.53-12.2a88.797 88.797 0 0 0 13.538 7.89 88.524 88.524 0 0 0 14.72 5.402l3.856-14.4a73.9 73.9 0 0 1-12.283-4.508" fill="#00AEE8"/><path d="M202.86 232.29c-5.663 4-11.698 7.516-18.026 10.495a118.377 118.377 0 0 1-19.594 7.176l-3.855-14.39a103.97 103.97 0 0 1-17.99 3.172c-3.014.265-6.06.404-9.137.404-3.08 0-6.13-.14-9.14-.404-6.167-.538-12.178-1.61-17.995-3.173l-3.85 14.39a118.037 118.037 0 0 1-19.59-7.175l-6.293 13.5a133.095 133.095 0 0 0 22.034 8.066 133.75 133.75 0 0 0 23.106 4.068c3.867.337 7.776.518 11.728.518 3.953 0 7.863-.18 11.73-.518a133.826 133.826 0 0 0 23.106-4.067 133.693 133.693 0 0 0 42.302-19.86l-8.537-12.2" fill="#3B528A"/><path d="M232.11 202.804l-12.193-8.543c-3.476 5.013-7.38 9.71-11.66 14.03a104.963 104.963 0 0 1-13.932 11.798 103.754 103.754 0 0 1-15.783 9.19 102.943 102.943 0 0 1-17.157 6.29l3.855 14.393a118.377 118.377 0 0 0 19.594-7.175 119.423 119.423 0 0 0 18.026-10.494l8.536 12.2a134.587 134.587 0 0 0 32.9-33.14l-12.187-8.546" fill="#00AEE8"/><path d="M207.73 185.718l-12.196-8.55a74.696 74.696 0 0 1-8.324 10.054 75.326 75.326 0 0 1-9.968 8.446l8.543 12.22a89.082 89.082 0 0 1-13.532 7.892l6.29 13.5a103.754 103.754 0 0 0 15.782-9.192 104.963 104.963 0 0 0 13.93-11.798c4.28-4.32 8.186-9.017 11.662-14.03l-12.187-8.542" fill="#52C1DB"/><path d="M185.785 207.887l-8.543-12.22a74.04 74.04 0 0 1-11.287 6.605 73.966 73.966 0 0 1-25.155 6.78c-2.16.19-4.338.304-6.542.304-2.203 0-4.385-.115-6.54-.304a74.08 74.08 0 0 1-12.882-2.274l-3.855 14.4a88.524 88.524 0 0 1-14.72-5.402 88.797 88.797 0 0 1-13.537-7.89l-8.53 12.2a103.848 103.848 0 0 0 15.78 9.19 103.146 103.146 0 0 0 17.15 6.29 104.094 104.094 0 0 0 17.996 3.174c3.008.265 6.057.404 9.138.404 3.078 0 6.123-.14 9.136-.404a103.97 103.97 0 0 0 17.99-3.173 102.943 102.943 0 0 0 17.158-6.29l-6.29-13.5a89.082 89.082 0 0 0 13.533-7.893" fill="#3F8ABD"/></svg>