<svg width="256" height="269" viewBox="0 0 256 269" xmlns="http://www.w3.org/2000/svg" preserveAspectRatio="xMinYMin meet"><path d="M219.368 74.566a104.842 104.842 0 0 0-25.6-25.418l-8.536 12.203a89.091 89.091 0 0 0-13.43-7.72l-6.297 13.516a74.154 74.154 0 0 1 11.185 6.417 74.806 74.806 0 0 1 9.928 8.25l-10.52 10.53-10.53 10.533a44.262 44.262 0 0 1 5.03 5.876 44.386 44.386 0 0 1 3.965 6.658l26.973-12.59 13.494-6.297 13.487-6.297a104.148 104.148 0 0 0-9.15-15.66zm24.384-17.084a134.798 134.798 0 0 0-32.915-32.737 134.14 134.14 0 0 0-20.165-11.62 133.213 133.213 0 0 0-21.875-7.932 133.54 133.54 0 0 0-22.913-4l-1.295 14.84c6.974.598 13.777 1.8 20.354 3.548l-3.85 14.394a103.698 103.698 0 0 1 16.993 6.156 103.698 103.698 0 0 1 15.68 9.018 104.86 104.86 0 0 1 13.9 11.595 104.843 104.843 0 0 1 11.7 13.823 104.148 104.148 0 0 1 9.15 15.66l13.485-6.296 13.49-6.296a134.245 134.245 0 0 0-11.74-20.152zM178.087 40.13a103.606 103.606 0 0 0-16.993-6.156 103.61 103.61 0 0 0-17.803-3.104c-2.98-.257-5.987-.395-9.032-.395-3.042 0-6.06.138-9.036.395a103.678 103.678 0 0 0-17.8 3.104l3.85 14.39a88.456 88.456 0 0 0-14.557 5.267l6.293 13.518a74.218 74.218 0 0 1 12.118-4.39 74.69 74.69 0 0 1 12.694-2.197 74.393 74.393 0 0 1 6.438-.295c2.17 0 4.313.11 6.44.296a74.72 74.72 0 0 1 12.688 2.198 73.88 73.88 0 0 1 12.12 4.388l6.297-13.515a89.239 89.239 0 0 1 13.43 7.72l8.535-12.202a103.845 103.845 0 0 0-15.68-9.018zM144.59 16.033l1.295-14.84c-3.833-.33-7.71-.507-11.627-.507-3.917 0-7.792.178-11.625.508a133.33 133.33 0 0 0-22.917 4 132.513 132.513 0 0 0-21.872 7.936 133.762 133.762 0 0 0-20.17 11.618 134.735 134.735 0 0 0-17.87 14.932l10.523 10.532A119.668 119.668 0 0 1 66.21 36.948l8.536 12.204a103.684 103.684 0 0 1 32.676-15.178 103.678 103.678 0 0 1 17.8-3.104c2.976-.257 5.994-.395 9.036-.395 3.045 0 6.053.138 9.033.395 6.1.526 12.05 1.57 17.804 3.104l3.85-14.393a118.687 118.687 0 0 0-20.354-3.547zm-33.317 32.33l-3.85-14.39a103.404 103.404 0 0 0-17 6.16 103.475 103.475 0 0 0-15.677 9.02 104.76 104.76 0 0 0-13.9 11.59 105.321 105.321 0 0 0-11.702 13.828l12.192 8.542a89.262 89.262 0 0 0-7.85 13.41l13.496 6.298a74.4 74.4 0 0 1 6.558-11.153 75.298 75.298 0 0 1 8.355-9.855 75.023 75.023 0 0 1 9.925-8.25 74.304 74.304 0 0 1 11.188-6.414L96.715 53.63a88.34 88.34 0 0 1 14.558-5.266zM66.21 36.95c-5.675 3.96-10.99 8.4-15.883 13.264L39.804 39.68a134.752 134.752 0 0 0-15.038 17.805A133.606 133.606 0 0 0 4.953 99.542a134.218 134.218 0 0 0-4.13 22.995l14.825 1.3c.64-7.005 1.88-13.836 3.682-20.44l14.373 3.857A103.308 103.308 0 0 1 40 90.226c2.6-5.5 5.664-10.738 9.144-15.655 3.503-4.945 7.42-9.57 11.703-13.827a104.568 104.568 0 0 1 13.9-11.59L66.21 36.947zM39.546 178.43a103.749 103.749 0 0 1-9.178-35.108 105.57 105.57 0 0 1-.347-8.51c0-3.264.16-6.494.456-9.678.56-6.13 1.65-12.106 3.227-17.88l-14.373-3.857a118.69 118.69 0 0 0-3.682 20.44l-14.824-1.3a136.847 136.847 0 0 0-.562 12.275c0 3.74.16 7.443.455 11.103.652 7.904 1.98 15.61 3.935 23.068a133.733 133.733 0 0 0 19.565 42.368l12.192-8.546a118.78 118.78 0 0 1-10.35-18.08l13.486-6.294zm20.49-37.71a75.439 75.439 0 0 1-.252-5.908c0-2.39.124-4.75.34-7.08a74.045 74.045 0 0 1 2.348-12.765 73.94 73.94 0 0 1 4.51-12.147l-13.495-6.297a89.028 89.028 0 0 1 7.85-13.41L49.143 74.57A104.355 104.355 0 0 0 40 90.227a103.342 103.342 0 0 0-6.297 17.028 103.797 103.797 0 0 0-3.227 17.88 104.553 104.553 0 0 0-.455 9.678c0 2.865.12 5.702.348 8.51a103.749 103.749 0 0 0 3.04 17.95l14.377-3.857a88.4 88.4 0 0 0 5.248 14.715l13.503-6.3a74.028 74.028 0 0 1-4.372-12.273 74.014 74.014 0 0 1-2.127-12.836zm29.936 88.56a103.958 103.958 0 0 1-15.78-9.192A105.002 105.002 0 0 1 60.26 208.29a104.84 104.84 0 0 1-11.66-14.03 104.084 104.084 0 0 1-9.054-15.83l-13.485 6.294a118.78 118.78 0 0 0 10.35 18.08l-12.193 8.545a134.793 134.793 0 0 0 15 18.002 134.587 134.587 0 0 0 17.905 15.138 134.131 134.131 0 0 0 20.268 11.794l6.294-13.5a117.93 117.93 0 0 0 19.59 7.177l3.85-14.39a103.364 103.364 0 0 1-17.152-6.29zm12.58-27.008a74.32 74.32 0 0 1-11.277-6.604 74.645 74.645 0 0 1-9.967-8.446 74.642 74.642 0 0 1-8.324-10.054 75.054 75.054 0 0 1-6.448-11.337l-13.503 6.3a88.49 88.49 0 0 1-5.248-14.715l-14.377 3.857a103.966 103.966 0 0 0 6.138 17.158 104.253 104.253 0 0 0 9.054 15.83 104.84 104.84 0 0 0 11.66 14.03 105.002 105.002 0 0 0 13.932 11.798l8.53-12.2a88.843 88.843 0 0 0 13.538 7.89 88.46 88.46 0 0 0 14.72 5.402l3.856-14.4a73.876 73.876 0 0 1-12.283-4.508zm100.308 30.02a119.56 119.56 0 0 1-18.026 10.493 118.39 118.39 0 0 1-19.594 7.176l-3.855-14.39a104.049 104.049 0 0 1-17.99 3.172c-3.014.265-6.06.404-9.137.404-3.08 0-6.13-.14-9.14-.404a104.19 104.19 0 0 1-17.995-3.173l-3.85 14.39a117.924 117.924 0 0 1-19.59-7.175l-6.293 13.5a133.177 133.177 0 0 0 22.034 8.066 133.644 133.644 0 0 0 23.106 4.068c3.867.337 7.776.518 11.728.518 3.953 0 7.863-.18 11.73-.518a133.856 133.856 0 0 0 23.106-4.067 132.81 132.81 0 0 0 22.025-8.066 133.75 133.75 0 0 0 20.276-11.794l-8.536-12.2zm29.25-29.488l-12.193-8.543a104.726 104.726 0 0 1-11.66 14.03 104.98 104.98 0 0 1-13.932 11.798 103.665 103.665 0 0 1-15.783 9.19 102.679 102.679 0 0 1-17.157 6.29l3.855 14.393a118.263 118.263 0 0 0 19.594-7.175 119.565 119.565 0 0 0 18.026-10.494l8.536 12.2a134.522 134.522 0 0 0 32.9-33.141l-12.187-8.546zm-24.38-17.086l-12.196-8.55a74.77 74.77 0 0 1-8.324 10.054 75.405 75.405 0 0 1-9.968 8.446l8.543 12.22a89.106 89.106 0 0 1-13.532 7.892l6.29 13.5a103.88 103.88 0 0 0 15.782-9.192 104.962 104.962 0 0 0 13.93-11.798 104.74 104.74 0 0 0 11.662-14.03l-12.187-8.542zm-21.945 22.17l-8.543-12.22a73.963 73.963 0 0 1-11.287 6.604 73.922 73.922 0 0 1-25.155 6.78 74.56 74.56 0 0 1-6.542.304 74.83 74.83 0 0 1-6.54-.304 73.941 73.941 0 0 1-12.882-2.274l-3.855 14.4a88.549 88.549 0 0 1-14.72-5.402 88.833 88.833 0 0 1-13.537-7.89l-8.53 12.2a103.683 103.683 0 0 0 15.78 9.19 102.93 102.93 0 0 0 17.15 6.29 103.996 103.996 0 0 0 17.996 3.174c3.008.265 6.057.404 9.138.404 3.078 0 6.123-.14 9.136-.404a104 104 0 0 0 17.99-3.173 103.166 103.166 0 0 0 17.158-6.29l-6.29-13.5a89.122 89.122 0 0 0 13.533-7.893z" fill="#52C1DB"/><path d="M219.368 74.566a104.842 104.842 0 0 0-25.6-25.418l-8.536 12.203a89.091 89.091 0 0 0-13.43-7.72l-6.297 13.516a74.154 74.154 0 0 1 11.185 6.417 74.806 74.806 0 0 1 9.928 8.25l-10.52 10.53-10.53 10.533a44.262 44.262 0 0 1 5.03 5.876 44.386 44.386 0 0 1 3.965 6.658l26.973-12.59 13.494-6.297 13.487-6.297a104.148 104.148 0 0 0-9.15-15.66" fill="#52C1DB"/><path d="M243.752 57.482a134.798 134.798 0 0 0-32.915-32.737 134.14 134.14 0 0 0-20.165-11.62 133.213 133.213 0 0 0-21.875-7.932 133.54 133.54 0 0 0-22.913-4l-1.295 14.84c6.974.598 13.777 1.8 20.354 3.548l-3.85 14.394a103.698 103.698 0 0 1 16.993 6.156 103.698 103.698 0 0 1 15.68 9.018 104.86 104.86 0 0 1 13.9 11.595 104.843 104.843 0 0 1 11.7 13.823 104.148 104.148 0 0 1 9.15 15.66l13.485-6.296 13.49-6.296a134.245 134.245 0 0 0-11.74-20.152" fill="#3B528A"/><path d="M178.087 40.13a103.606 103.606 0 0 0-16.993-6.156 103.61 103.61 0 0 0-17.803-3.104c-2.98-.257-5.987-.395-9.032-.395-3.042 0-6.06.138-9.036.395a103.678 103.678 0 0 0-17.8 3.104l3.85 14.39a88.456 88.456 0 0 0-14.557 5.267l6.293 13.518a74.218 74.218 0 0 1 12.118-4.39 74.69 74.69 0 0 1 12.694-2.197 74.393 74.393 0 0 1 6.438-.295c2.17 0 4.313.11 6.44.296a74.72 74.72 0 0 1 12.688 2.198 73.88 73.88 0 0 1 12.12 4.388l6.297-13.515a89.239 89.239 0 0 1 13.43 7.72l8.535-12.202a103.845 103.845 0 0 0-15.68-9.018" fill="#00AEE8"/><path d="M144.59 16.033l1.295-14.84c-3.833-.33-7.71-.507-11.627-.507-3.917 0-7.792.178-11.625.508a133.33 133.33 0 0 0-22.917 4 132.513 132.513 0 0 0-21.872 7.936 133.762 133.762 0 0 0-20.17 11.618 134.735 134.735 0 0 0-17.87 14.932l10.523 10.532A119.668 119.668 0 0 1 66.21 36.948l8.536 12.204a103.684 103.684 0 0 1 32.676-15.178 103.678 103.678 0 0 1 17.8-3.104c2.976-.257 5.994-.395 9.036-.395 3.045 0 6.053.138 9.033.395 6.1.526 12.05 1.57 17.804 3.104l3.85-14.393a118.687 118.687 0 0 0-20.354-3.547" fill="#3F8ABD"/><path d="M111.273 48.364l-3.85-14.39a103.645 103.645 0 0 0-32.677 15.178 104.99 104.99 0 0 0-13.9 11.59 105.34 105.34 0 0 0-11.702 13.83l12.192 8.54a89.262 89.262 0 0 0-7.85 13.41l13.496 6.298a74.4 74.4 0 0 1 6.558-11.153 75.298 75.298 0 0 1 8.355-9.855 75.023 75.023 0 0 1 9.925-8.25 74.304 74.304 0 0 1 11.188-6.414L96.715 53.63a88.34 88.34 0 0 1 14.558-5.266" fill="#52C1DB"/><path d="M66.21 36.948c-5.675 3.96-10.99 8.4-15.883 13.264L39.804 39.68a134.752 134.752 0 0 0-15.038 17.805A133.606 133.606 0 0 0 4.953 99.542a134.218 134.218 0 0 0-4.13 22.995l14.825 1.3c.64-7.005 1.88-13.836 3.682-20.44l14.373 3.857A103.308 103.308 0 0 1 40 90.226c2.6-5.5 5.664-10.738 9.144-15.655 3.503-4.945 7.42-9.57 11.703-13.827a104.568 104.568 0 0 1 13.9-11.59L66.21 36.947" fill="#00AEE8"/><path d="M39.546 178.43a103.749 103.749 0 0 1-9.178-35.108 105.57 105.57 0 0 1-.347-8.51c0-3.264.16-6.494.456-9.678.56-6.13 1.65-12.106 3.227-17.88l-14.373-3.857a118.69 118.69 0 0 0-3.682 20.44l-14.824-1.3a136.847 136.847 0 0 0-.562 12.275c0 3.74.16 7.443.455 11.103.652 7.904 1.98 15.61 3.935 23.068a133.733 133.733 0 0 0 19.565 42.368l12.192-8.546a118.78 118.78 0 0 1-10.35-18.08l13.486-6.294" fill="#3F8ABD"/><path d="M60.037 140.72a74.953 74.953 0 0 1-.253-5.908c0-2.39.124-4.75.34-7.08a74.045 74.045 0 0 1 2.348-12.765 73.94 73.94 0 0 1 4.51-12.147l-13.495-6.297a89.028 89.028 0 0 1 7.85-13.41L49.143 74.57A104.355 104.355 0 0 0 40 90.227a103.342 103.342 0 0 0-6.297 17.028 103.797 103.797 0 0 0-3.227 17.88 104.553 104.553 0 0 0-.455 9.678c0 2.865.12 5.702.348 8.51a103.749 103.749 0 0 0 3.04 17.95l14.377-3.857a88.4 88.4 0 0 0 5.248 14.715l13.503-6.3a74.028 74.028 0 0 1-4.372-12.273 74.014 74.014 0 0 1-2.127-12.836" fill="#3B528A"/><path d="M89.972 229.28a103.958 103.958 0 0 1-15.78-9.192A105.002 105.002 0 0 1 60.26 208.29a104.84 104.84 0 0 1-11.66-14.03 104.084 104.084 0 0 1-9.054-15.83l-13.485 6.294a118.78 118.78 0 0 0 10.35 18.08l-12.193 8.545a134.793 134.793 0 0 0 15 18.002 134.587 134.587 0 0 0 17.905 15.138 134.131 134.131 0 0 0 20.268 11.794l6.294-13.5a117.93 117.93 0 0 0 19.59 7.177l3.85-14.39a103.364 103.364 0 0 1-17.152-6.29" fill="#52C1DB"/><path d="M102.553 202.272a74.282 74.282 0 0 1-11.278-6.604 74.645 74.645 0 0 1-9.967-8.446 74.642 74.642 0 0 1-8.324-10.054 75.054 75.054 0 0 1-6.448-11.337l-13.503 6.3a88.49 88.49 0 0 1-5.248-14.715l-14.377 3.857a103.966 103.966 0 0 0 6.138 17.158 104.253 104.253 0 0 0 9.054 15.83 104.84 104.84 0 0 0 11.66 14.03 105.002 105.002 0 0 0 13.932 11.798l8.53-12.2a88.843 88.843 0 0 0 13.538 7.89 88.46 88.46 0 0 0 14.72 5.402l3.856-14.4a73.876 73.876 0 0 1-12.283-4.508" fill="#00AEE8"/><path d="M202.86 232.29c-5.663 4-11.698 7.516-18.026 10.495a118.39 118.39 0 0 1-19.594 7.176l-3.855-14.39a104.049 104.049 0 0 1-17.99 3.172c-3.014.265-6.06.404-9.137.404-3.08 0-6.13-.14-9.14-.404a104.19 104.19 0 0 1-17.995-3.173l-3.85 14.39a117.924 117.924 0 0 1-19.59-7.175l-6.293 13.5a133.177 133.177 0 0 0 22.034 8.066 133.644 133.644 0 0 0 23.106 4.068c3.867.337 7.776.518 11.728.518 3.953 0 7.863-.18 11.73-.518a133.856 133.856 0 0 0 23.106-4.067 132.81 132.81 0 0 0 22.025-8.066 133.75 133.75 0 0 0 20.276-11.794l-8.536-12.2" fill="#3B528A"/><path d="M232.11 202.804l-12.193-8.543a104.726 104.726 0 0 1-11.66 14.03 104.98 104.98 0 0 1-13.932 11.798 103.665 103.665 0 0 1-15.783 9.19 102.679 102.679 0 0 1-17.157 6.29l3.855 14.393a118.263 118.263 0 0 0 19.594-7.175 119.565 119.565 0 0 0 18.026-10.494l8.536 12.2a134.522 134.522 0 0 0 32.9-33.141l-12.187-8.546" fill="#00AEE8"/><path d="M207.73 185.718l-12.196-8.55a74.77 74.77 0 0 1-8.324 10.054 75.405 75.405 0 0 1-9.968 8.446l8.543 12.22a89.106 89.106 0 0 1-13.532 7.892l6.29 13.5a103.88 103.88 0 0 0 15.782-9.192 104.962 104.962 0 0 0 13.93-11.798 104.74 104.74 0 0 0 11.662-14.03l-12.187-8.542" fill="#52C1DB"/><path d="M185.785 207.887l-8.543-12.22a73.887 73.887 0 0 1-11.287 6.605 73.922 73.922 0 0 1-25.155 6.78 74.56 74.56 0 0 1-6.542.304 74.83 74.83 0 0 1-6.54-.304 73.941 73.941 0 0 1-12.882-2.274l-3.855 14.4a88.549 88.549 0 0 1-14.72-5.402 88.833 88.833 0 0 1-13.537-7.89l-8.53 12.2a103.683 103.683 0 0 0 15.78 9.19 102.93 102.93 0 0 0 17.15 6.29 103.996 103.996 0 0 0 17.996 3.174c3.008.265 6.057.404 9.138.404 3.078 0 6.123-.14 9.136-.404a104 104 0 0 0 17.99-3.173 103.166 103.166 0 0 0 17.158-6.29l-6.29-13.5a89.122 89.122 0 0 0 13.533-7.893" fill="#3F8ABD"/></svg>