<svg width="256" height="256" viewBox="0 0 256 256" xmlns="http://www.w3.org/2000/svg" preserveAspectRatio="xMinYMin meet"><path d="M128 0C57.422 0 0 57.423 0 128c0 70.585 57.423 128.005 128 128.005S256 198.585 256 128C256 57.424 198.577 0 128 0" fill="#FFF"/><path d="M123.318 130.303a534.748 534.748 0 0 0-3.733 8.272c-4.645 10.524-9.79 23.33-11.668 31.534-.675 2.92-1.093 6.542-1.085 10.557 0 1.588.085 3.257.22 4.957a61.266 61.266 0 0 0 21.067 3.753 61.374 61.374 0 0 0 19.283-3.143c-1.425-1.303-2.785-2.692-4.023-4.257-8.22-10.482-12.806-25.844-20.062-51.674M92.97 78.225c-15.7 11.064-25.972 29.312-26.01 49.992.038 20.37 10.002 38.383 25.306 49.493 3.754-15.637 13.164-29.955 27.275-58.655a230.83 230.83 0 0 0-2.86-7.47c-3.91-9.805-9.552-21.193-14.587-26.35-2.567-2.694-5.682-5.022-9.123-7.01" fill="#91DC47"/><path d="M181.394 198.367c-8.1-1.015-14.785-2.24-20.633-4.303a73.18 73.18 0 0 1-32.64 7.643c-40.585 0-73.484-32.894-73.49-73.49 0-22.027 9.705-41.773 25.057-55.24-4.106-.992-8.388-1.57-12.762-1.563-21.562.203-44.323 12.136-53.8 44.363-.885 4.69-.674 8.238-.674 12.442 0 63.884 51.792 115.675 115.672 115.675 39.122 0 73.682-19.44 94.61-49.17-11.32 2.822-22.205 4.17-31.527 4.2-3.494 0-6.774-.187-9.81-.558" fill="#63B132"/><path d="M159.658 175.953c.714.354 2.333.932 4.586 1.57 15.157-11.126 25.007-29.05 25.046-49.306h-.006c-.057-33.77-27.386-61.096-61.165-61.163a61.312 61.312 0 0 0-19.204 3.122c12.42 14.156 18.39 34.386 24.168 56.515l.01.027c.01.018 1.848 6.145 5.002 14.274 3.132 8.12 7.594 18.17 12.46 25.493 3.195 4.908 6.71 8.435 9.102 9.47" fill="#90B4FE"/><path d="M128.122 12.54c-38.744 0-73.016 19.074-94.008 48.32 10.925-6.843 22.08-9.31 31.815-9.223 13.445.04 24.016 4.208 29.088 7.06a53.275 53.275 0 0 1 3.527 2.247 73.183 73.183 0 0 1 29.574-6.215c40.588.004 73.492 32.898 73.498 73.487h-.006c0 20.464-8.37 38.967-21.863 52.29 3.31.372 6.843.603 10.45.585 12.81.006 26.658-2.82 37.04-11.552 6.768-5.702 12.44-14.05 15.584-26.57.615-4.834.97-9.75.97-14.75 0-63.883-51.787-115.68-115.672-115.68" fill="#5881D8"/></svg>