<svg width="512" height="93" viewBox="0 0 512 93" xmlns="http://www.w3.org/2000/svg" preserveAspectRatio="xMinYMin meet"><g fill="#CCC"><path d="M32.133 22.9c5.74 0 10.998 2.075 15.087 5.504l5.557-6.624c-5.587-4.696-12.788-7.532-20.642-7.532C14.415 14.248 0 28.664 0 46.382 0 64.104 14.416 78.52 32.137 78.514c7.854 0 15.054-2.836 20.64-7.532l-5.556-6.624a23.38 23.38 0 0 1-15.085 5.504c-12.947 0-23.482-10.533-23.482-23.48 0-12.946 10.535-23.485 23.484-23.482h-.004zM210.01 16.104H192.71a4.325 4.325 0 0 0-4.324 4.324v51.907a4.328 4.328 0 0 0 4.324 4.325h17.303c16.698 0 30.28-13.583 30.28-30.28 0-16.697-13.58-30.28-30.283-30.276h.004zm0 51.907h-12.976V24.756h12.977c11.927 0 21.624 9.706 21.624 21.63.005 11.93-9.697 21.623-21.627 21.626h.004zM263.712 20.43v51.907a4.328 4.328 0 0 0 4.325 4.324h36.048v-8.65h-31.72V50.708h20.185v-8.65h-20.186V24.754h31.72v-8.65h-36.047a4.316 4.316 0 0 0-4.32 4.324h-.005zM394.65 20.43v51.907a4.328 4.328 0 0 0 4.324 4.324h36.046v-8.65H403.3V50.708h20.186v-8.65H403.3V24.754h31.72v-8.65h-36.045a4.32 4.32 0 0 0-4.325 4.324zM353.483 16.104h-18.746a4.325 4.325 0 0 0-4.324 4.324V76.66h8.652V50.708h14.42c9.54 0 17.3-7.762 17.3-17.3 0-9.54-7.762-17.307-17.306-17.303h.003zm0 25.952h-14.42v-17.3h14.42c4.77 0 8.65 3.877 8.65 8.65 0 4.773-3.88 8.654-8.654 8.65h.003zM502.65 16.104V60.39l-35.607-42.73a4.32 4.32 0 0 0-4.795-1.3 4.328 4.328 0 0 0-2.854 4.068V76.66h8.652V32.378l35.607 42.728a4.315 4.315 0 0 0 4.79 1.296 4.328 4.328 0 0 0 2.854-4.066V16.1h-8.647v.004zM163.81 31.635c-.022-.112-.04-.224-.07-.333-.02-.066-.042-.128-.063-.193a3.968 3.968 0 0 0-.102-.29c-.027-.065-.058-.128-.088-.192a3.51 3.51 0 0 0-.135-.263c-.035-.063-.075-.123-.113-.184a3.98 3.98 0 0 0-.5-.625c-.053-.052-.105-.105-.16-.156a3.27 3.27 0 0 0-.225-.188c-.06-.046-.118-.093-.18-.136-.023-.016-.042-.035-.066-.05L119.935.91a3.96 3.96 0 0 0-4.398 0L73.363 29.024c-.024.015-.043.034-.066.05-.062.044-.12.09-.18.135a3.102 3.102 0 0 0-.383.342 3.582 3.582 0 0 0-.5.63 3.458 3.458 0 0 0-.247.445c-.03.064-.063.128-.09.193a3.98 3.98 0 0 0-.103.288c-.02.065-.043.128-.06.187-.03.11-.05.22-.07.333-.01.057-.025.113-.032.17-.023.173-.035.344-.035.52V60.44c0 .174.012.348.037.518.01.062.025.112.037.172.02.112.04.223.076.335.017.062.037.125.062.193.03.1.062.2.1.29.026.062.062.124.086.186a3.206 3.206 0 0 0 .423.682c.044.06.088.11.138.17.063.075.124.15.198.216.05.05.1.11.162.15.072.06.15.123.224.188.06.05.124.088.174.136.023.012.037.037.062.05l42.164 28.13a3.9 3.9 0 0 0 2.2.667 3.987 3.987 0 0 0 2.2-.667l42.175-28.117c.023-.015.043-.033.065-.05.063-.043.12-.09.18-.135.078-.06.154-.124.226-.188.054-.05.106-.102.16-.154a3.56 3.56 0 0 0 .33-.387 5.507 5.507 0 0 0 .28-.423c.05-.086.095-.175.137-.264.03-.065.062-.128.09-.193.038-.095.07-.192.1-.29.022-.064.044-.127.063-.192.03-.11.05-.22.07-.333.01-.057.025-.113.03-.17.023-.173.036-.344.036-.52V32.325a4.22 4.22 0 0 0-.036-.518c-.01-.06-.03-.11-.04-.172h.005zm-46.074 24.13l-14.024-9.38L117.736 37l14.026 9.382-14.026 9.38zm-3.964-25.65L96.58 41.612 82.703 32.33l31.07-20.713v18.497zM89.448 46.38l-9.92 6.635v-13.27l9.92 6.635zm7.132 4.775l17.192 11.498V81.15l-31.07-20.714 13.878-9.282v.003zm25.122 11.495l17.192-11.498 13.878 9.282-31.07 20.713V62.65zm24.324-16.267l9.92-6.636v13.27l-9.92-6.638v.003zm-7.132-4.772l-17.192-11.498V11.617l31.07 20.713-13.878 9.283z"/></g></svg>