<svg width="256" height="256" viewBox="0 0 256 256" xmlns="http://www.w3.org/2000/svg" preserveAspectRatio="xMinYMin meet"><path d="M255.807 87.087c-.06-.31-.11-.62-.193-.924-.052-.183-.114-.355-.172-.535-.087-.27-.176-.537-.283-.8-.077-.182-.163-.358-.246-.534a9.74 9.74 0 0 0-.376-.73c-.096-.176-.207-.342-.313-.51a11.038 11.038 0 0 0-.842-1.142c-.172-.207-.358-.403-.544-.596-.146-.145-.29-.29-.443-.43a9.07 9.07 0 0 0-.624-.522c-.165-.127-.327-.258-.5-.376-.06-.044-.117-.096-.182-.138l-116.99-78a10.99 10.99 0 0 0-12.202 0l-117 77.997c-.065.04-.116.093-.182.138-.172.12-.334.248-.5.376-.214.17-.424.342-.624.518a8.604 8.604 0 0 0-.438.43c-.193.194-.372.39-.548.597-.13.155-.255.31-.376.483-.165.217-.317.438-.465.67-.107.168-.214.333-.314.51-.137.237-.257.48-.37.723-.084.177-.173.356-.246.535-.107.262-.2.53-.286.8-.058.18-.12.355-.17.517-.078.303-.137.61-.192.924-.03.16-.07.314-.09.476-.062.475-.096.95-.096 1.437v78.015c0 .482.034.965.103 1.437.025.173.07.31.104.476.055.31.103.62.207.93.048.173.103.346.172.535.086.276.172.552.276.804.072.172.172.344.24.517.115.24.243.482.38.734.097.172.207.345.31.503.15.243.31.45.483.656.12.173.242.31.38.476.175.207.344.414.55.597.142.136.277.31.45.412.2.173.413.345.62.524.165.138.345.242.482.376.066.034.104.103.173.134l116.968 78.04a10.815 10.815 0 0 0 6.102 1.85 11.06 11.06 0 0 0 6.102-1.85l117-77.998c.065-.042.12-.09.182-.135.172-.12.334-.248.5-.375.214-.17.424-.345.624-.524.15-.135.296-.283.44-.428a9.876 9.876 0 0 0 .922-1.072c.165-.217.317-.44.465-.67.107-.164.214-.333.314-.502.137-.242.257-.486.374-.734.083-.176.17-.352.245-.53.106-.267.196-.536.282-.805.058-.18.12-.355.172-.534.08-.304.135-.615.193-.925.028-.16.07-.314.086-.476.063-.476.097-.952.097-1.438V89c0-.486-.038-.962-.097-1.438-.027-.17-.08-.306-.113-.475h.017zm-127.81 66.935l-38.905-26.02 38.905-26.026L166.904 128l-38.907 26.022zM117 82.867l-47.693 31.9L30.81 89.013 117 31.554v51.313zm-67.478 45.13l-27.517 18.406v-36.81l27.517 18.404zm19.785 13.245L117 173.138v51.312l-86.19-57.465 38.497-25.75v.007zm69.69 31.89l47.692-31.896 38.5 25.75-86.193 57.457V173.13zm67.477-45.128l27.52-18.41v36.816l-27.52-18.413v.007zm-19.785-13.238L138.996 82.87V31.555l86.193 57.46-38.5 25.75z" fill="#ccc"/></svg>