<svg width="256" height="256" viewBox="0 0 256 256" xmlns="http://www.w3.org/2000/svg" preserveAspectRatio="xMinYMin meet"><path d="M80.84 194.494C62.138 163.5 51.842 133.21 47.05 106.536c-1.097-6.092-1.904-12-2.46-17.68-1.154-11.846-1.217-22.72-.492-32.306v-.01c-.65.71-1.292 1.427-1.93 2.14-.103.12-.214.236-.318.355-.655.735-1.303 1.476-1.947 2.218-.115.132-.23.265-.348.397a236.195 236.195 0 0 0-6.326 7.62C19.36 86.71 8.213 105.872 0 126.225c.69 1.703 1.407 3.393 2.13 5.076a229.225 229.225 0 0 0 31.098 51.882 235.217 235.217 0 0 0 8.314 9.895l17.743 1.333c4.823.36 12.194.622 21.555.08" fill="#276691"/><path d="M106.788 208.603a222.787 222.787 0 0 1-17.667 2.48c-11.81 1.167-22.653 1.247-32.23.546-.115-.01-.23-.013-.35-.024 4.135 3.79 8.38 7.41 12.73 10.87 17.44 13.865 36.603 25.01 56.957 33.225 1.786-.72 3.563-1.47 5.326-2.235a229.584 229.584 0 0 0 51.632-30.987 237.998 237.998 0 0 0 10.043-8.447l1.338-17.763c.36-4.81.62-12.162.08-21.504-30.946 18.71-61.204 29.024-87.858 33.84" fill="#F78921"/><path d="M174.763 56.84c18.695 30.938 28.998 61.182 33.812 87.825a222.407 222.407 0 0 1 2.47 17.678c1.167 11.785 1.245 22.61.55 32.17-.012.122-.02.243-.027.366 3.79-4.13 7.416-8.38 10.867-12.73 13.87-17.442 25.015-36.6 33.228-56.957-.67-1.667-1.37-3.32-2.08-4.97a229.392 229.392 0 0 0-31.147-51.988 241.54 241.54 0 0 0-8.363-9.955l-17.918-1.35c-4.797-.36-12.104-.615-21.392-.09" fill="#CC2128"/><path d="M181.998 33.224C164.558 19.36 145.392 8.214 125.038 0a241.793 241.793 0 0 0-4.93 2.065c-18.526 7.983-36.002 18.42-52.032 31.16a236.619 236.619 0 0 0-9.784 8.226L56.93 59.514c-.356 4.775-.616 12.053-.093 21.297C87.765 62.147 118 51.864 144.63 47.07a222.915 222.915 0 0 1 17.68-2.47c11.808-1.157 22.65-1.227 32.22-.516.067.004.13.006.192.013a239.154 239.154 0 0 0-12.724-10.873" fill="#146E39"/></svg>