<svg width="512" height="79" viewBox="0 0 512 79" xmlns="http://www.w3.org/2000/svg" preserveAspectRatio="xMinYMin meet"><g fill="#47848F"><path d="M107.802 62.694h28.174a1.5 1.5 0 0 0 1.48-1.48 1.5 1.5 0 0 0-1.48-1.48h-26.57V42.412h23.487a1.5 1.5 0 0 0 1.48-1.478 1.5 1.5 0 0 0-1.48-1.48h-23.488V22.5h26.262a1.5 1.5 0 0 0 1.48-1.48 1.5 1.5 0 0 0-1.48-1.48h-27.865c-.863 0-1.603.74-1.603 1.602v39.95c0 .862.74 1.602 1.602 1.602zm49.214-1.603c0 .864.74 1.604 1.602 1.604h25.708a1.5 1.5 0 0 0 1.48-1.48 1.5 1.5 0 0 0-1.48-1.48H160.22V20.897c0-.863-.738-1.603-1.602-1.603-.863 0-1.602.74-1.602 1.603V61.09zm49.275 1.604h28.174a1.5 1.5 0 0 0 1.48-1.48 1.5 1.5 0 0 0-1.48-1.48h-26.57V42.412h23.488a1.5 1.5 0 0 0 1.48-1.478 1.5 1.5 0 0 0-1.48-1.48h-23.488V22.5h26.262a1.5 1.5 0 0 0 1.48-1.48 1.5 1.5 0 0 0-1.48-1.48H206.29c-.862 0-1.602.74-1.602 1.602v39.95c0 .862.74 1.602 1.603 1.602zm68.757.74c7.213 0 11.96-2.65 16.337-6.72.247-.247.493-.617.493-1.11 0-.8-.74-1.54-1.54-1.54-.494 0-.864.246-1.11.492-4.07 3.884-8.2 5.98-14.057 5.98-10.295 0-18.248-8.507-18.248-19.42v-.123c0-10.85 7.83-19.296 18.187-19.296 6.04 0 10.17 2.343 13.746 5.61.247.247.678.432 1.11.432.863 0 1.665-.74 1.665-1.604 0-.555-.308-.986-.616-1.295-4.192-3.574-8.692-6.04-15.844-6.04-12.453 0-21.577 10.11-21.577 22.317v.123c0 12.39 9.124 22.194 21.454 22.194zm47.426-2.096c0 .863.74 1.602 1.603 1.602s1.602-.74 1.602-1.602v-38.84h13.81a1.5 1.5 0 0 0 1.48-1.48 1.5 1.5 0 0 0-1.48-1.478h-30.825a1.5 1.5 0 0 0-1.48 1.48c0 .8.68 1.48 1.48 1.48h13.81v38.838zm37.5 0c0 .863.74 1.602 1.603 1.602s1.603-.74 1.603-1.602V44.816h14.116l13.255 17.26c.37.495.802.864 1.42.864.862 0 1.663-.8 1.663-1.664 0-.37-.185-.74-.493-1.11L380.872 44.26c7.274-.986 12.638-5.116 12.638-12.33v-.122c0-3.083-1.233-5.98-3.267-8.015-2.59-2.59-6.844-4.253-12.145-4.253h-16.522c-.863 0-1.603.74-1.603 1.602v40.196zm3.206-19.42v-19.42h14.733c7.83 0 12.39 3.638 12.39 9.433v.124c0 6.227-5.362 9.864-12.575 9.864h-14.55zm70.604 21.516c13.07 0 21.762-10.542 21.762-22.317v-.124c0-11.775-8.57-22.193-21.638-22.193-13.07 0-21.763 10.542-21.763 22.317v.123c0 11.775 8.57 22.194 21.64 22.194zm.124-2.898c-10.666 0-18.433-8.754-18.433-19.42v-.123c0-10.665 7.644-19.296 18.31-19.296 10.665 0 18.432 8.754 18.432 19.42v.123c0 10.665-7.644 19.296-18.31 19.296zm42.062.863c0 .862.678 1.54 1.54 1.54.864 0 1.542-.678 1.542-1.54V24.224l29.653 37.606c.494.617.987 1.05 1.603 1.05h.247c.74 0 1.295-.618 1.295-1.357v-40.69c0-.862-.68-1.54-1.542-1.54-.863 0-1.54.678-1.54 1.54v36.374l-29.1-36.928c-.43-.555-.924-.925-1.602-.925h-.493c-.863 0-1.603.74-1.603 1.603v40.44zM25.51 16.806c-10.19-1.856-18.247.087-21.458 5.648-2.396 4.15-1.712 9.653 1.66 15.535a1.045 1.045 0 0 0 1.814-1.04c-3.038-5.3-3.63-10.048-1.664-13.45 2.667-4.62 9.853-6.354 19.273-4.638a1.045 1.045 0 0 0 .374-2.056zM11.01 45.138c4.12 4.528 9.473 8.775 15.578 12.3 14.78 8.534 30.517 10.815 38.272 5.527a1.045 1.045 0 0 0-1.177-1.727c-6.94 4.733-21.89 2.566-36.05-5.61-5.923-3.42-11.106-7.532-15.077-11.896a1.045 1.045 0 1 0-1.546 1.406z"/><path d="M62.388 43.867c6.672-7.882 9.002-15.81 5.798-21.36-2.358-4.084-7.343-6.24-13.967-6.326a1.045 1.045 0 1 0-.03 2.09c5.96.078 10.254 1.936 12.186 5.282 2.66 4.61.584 11.68-5.583 18.965a1.045 1.045 0 0 0 1.595 1.35zM45.24 17.154c-6.032 1.293-12.453 3.82-18.62 7.38-15.26 8.81-25.213 21.8-23.83 31.22a1.045 1.045 0 1 0 2.067-.304c-1.227-8.363 8.208-20.677 22.808-29.106 5.982-3.454 12.2-5.9 18.014-7.147a1.045 1.045 0 0 0-.44-2.043z"/><path d="M20.52 62.284c3.49 9.74 9.196 15.738 15.614 15.738 4.68 0 9.01-3.19 12.387-8.807a1.045 1.045 0 1 0-1.79-1.077c-3.034 5.048-6.762 7.795-10.596 7.795-5.33 0-10.42-5.35-13.646-14.354a1.045 1.045 0 1 0-1.967.704zm31.866-1.906c1.806-5.77 2.775-12.428 2.775-19.366 0-17.31-6.057-32.233-14.687-36.065a1.045 1.045 0 0 0-.848 1.91c7.697 3.418 13.447 17.58 13.447 34.155 0 6.73-.94 13.178-2.68 18.742a1.045 1.045 0 1 0 1.994.624zM72.065 59.355a5 5 0 1 0-10.002 0 5 5 0 0 0 10.002 0zm-2.09 0a2.91 2.91 0 1 1-5.822 0 2.91 2.91 0 0 1 5.822 0zM5.132 64.356a5 5 0 1 0 0-10.002 5 5 0 0 0 0 10.002zm0-2.09a2.91 2.91 0 1 1 0-5.823 2.91 2.91 0 0 1 0 5.823z"/><path d="M36.134 10.048a5 5 0 1 0 0-10.002 5 5 0 0 0 0 10.002zm0-2.09a2.91 2.91 0 1 1 0-5.822 2.91 2.91 0 0 1 0 5.823zM36.898 44.55z"/></g></svg>