<svg width="256" height="255" viewBox="0 0 256 255" xmlns="http://www.w3.org/2000/svg" preserveAspectRatio="xMinYMin meet"><g fill="#8A4182"><path d="M118.267 105.334h19.795l4.918-6.733V45.875h-29.627v52.733l4.914 6.727M105.51 128.85l6.114-18.716-4.92-6.73L56.272 87.11l-9.153 28.016 50.44 16.296 7.952-2.57m18.549 19.335l-16.012-11.57-7.96 2.572-31.168 42.658 23.968 17.314 31.172-42.66v-8.315m24.225-11.572l-16.016 11.57.003 8.32 31.17 42.658 23.968-17.314-31.174-42.663-7.95-2.57m-3.584-26.485l6.118 18.72 7.958 2.57 50.435-16.294-9.157-28.018-50.436 16.297-4.918 6.725"/><path d="M128.17.106C57.71.106.384 57.1.384 127.152.383 197.23 57.71 254.24 128.17 254.24c70.455 0 127.775-57.01 127.775-127.088C255.945 57.1 198.625.106 128.17.106zm0 25.725c56.27 0 101.9 45.358 101.9 101.322 0 55.982-45.63 101.36-101.9 101.36-56.287 0-101.912-45.378-101.912-101.36 0-55.964 45.625-101.32 101.913-101.32z"/><path d="M205.565 155.39l-38.338-12.386 2.535-7.765 38.338 12.386-2.535 7.765m-48.895-61.2l-6.645-4.798 23.693-32.43 6.644 4.8L156.67 94.19m-56.598-.295l-23.69-32.43 6.644-4.798 23.69 32.428-6.644 4.8m-49.464 61.012l-2.536-7.765 38.334-12.382 2.537 7.765-38.335 12.382m73.199 53.253h8.21v-40.086h-8.21v40.085z"/></g></svg>