<svg width="512" height="200" viewBox="0 0 512 200" xmlns="http://www.w3.org/2000/svg" preserveAspectRatio="xMinYMin meet"><g fill="#264970"><path d="M468.91 51.385a3.59 3.59 0 0 0-3.427-2.512h-33.52a3.59 3.59 0 0 0-3.424 2.512l-42.29 134.13a3.59 3.59 0 0 0 3.425 4.673l23.076-.002a3.59 3.59 0 0 0 3.446-2.575l29.122-98.647s.762-2.464 3.4-2.464c2.68 0 3.334 2.562 3.334 2.564l13.51 46.78H447a3.59 3.59 0 0 0-3.457 2.618l-5.21 18.52a3.587 3.587 0 0 0 .596 3.14 3.59 3.59 0 0 0 2.862 1.423h31.326l8.138 26.117a3.593 3.593 0 0 0 3.43 2.525h23.087a3.592 3.592 0 0 0 3.425-4.673l-42.29-134.13"/><path d="M311.28 74.988h27.934c14.446 0 17.346 5.684 17.346 14.857v13.7c0 11.416-4.376 15.268-17.346 15.268H311.28V74.988zm85.29 109.27l-30.694-44.277c13.216-5.48 19.914-16.97 19.914-34.153V87.77c0-26.902-14.045-38.897-45.54-38.897h-54.606a3.592 3.592 0 0 0-3.592 3.59v134.13a3.593 3.593 0 0 0 3.592 3.594h22.045a3.593 3.593 0 0 0 3.59-3.593v-42.066h22.562l30.684 44.117a3.595 3.595 0 0 0 2.95 1.542h26.365a3.592 3.592 0 0 0 2.728-5.93zM255.268 48.873h-22.046a3.592 3.592 0 0 0-3.592 3.59v134.13a3.593 3.593 0 0 0 3.592 3.594h22.046a3.593 3.593 0 0 0 3.593-3.593V52.464c0-1.984-1.608-3.59-3.592-3.59M203.64 48.873h-22.314a3.43 3.43 0 0 0-3.43 3.42V157.25c0 13.19-10.05 17.526-16.853 17.872-.917.045-1.984.623-2.57 1.48a3.415 3.415 0 0 0-.447 2.932l5.425 17.648c.444 1.444 2 2.373 4.533 2.373 21.35 0 39.077-16.763 39.077-39.232V52.295a3.42 3.42 0 0 0-3.42-3.422"/><g><path d="M30.847 12.28c-6.856 0-12.407 5.545-12.407 12.418 0 6.856 5.55 12.42 12.407 12.42 6.86 0 12.406-5.564 12.406-12.42 0-6.873-5.545-12.417-12.406-12.417M112.356 12.28c-6.86 0-12.403 5.545-12.403 12.418 0 6.856 5.544 12.42 12.403 12.42 6.84 0 12.404-5.564 12.404-12.42 0-6.873-5.564-12.408-12.404-12.417M71.6.95c-6.854 0-12.405 5.544-12.405 12.42 0 6.855 5.55 12.42 12.406 12.42 6.86 0 12.406-5.565 12.406-12.42C84.006 6.493 78.46.95 71.6.95M141.686 46.882a3.9 3.9 0 0 0-2.362-.797c-.467 0-.94.085-1.386.257-8.4 3.213-16.932 5.652-24.718 7.466-1.588.37-2.87 1.55-3.402 2.966-5.673 15.54-20.16 30.336-35.357 45.834-.61.58-1.463 1.343-2.854 1.343-1.388 0-2.234-.74-2.855-1.342C53.556 87.11 39.07 72.364 33.395 56.824c-.532-1.415-1.815-2.594-3.4-2.966-7.79-1.814-16.343-4.33-24.734-7.54a3.91 3.91 0 0 0-1.39-.257c-.84 0-1.656.265-2.344.79a3.88 3.88 0 0 0-1.508 3.433C1.305 63.205 6.41 75.838 15.626 89.075c8.662 12.446 19.96 23.966 30.883 35.106 20.125 20.53 39.138 39.92 40.806 62.402a3.89 3.89 0 0 0 3.878 3.6h23.646a3.892 3.892 0 0 0 3.884-4.08c-.744-15.032-6.4-30.086-17.294-46.016-2.283-3.34-4.728-6.59-7.285-9.77-1.04-1.295-.604-2.904.19-3.716.786-.804 1.575-1.606 2.37-2.42 10.923-11.14 22.22-22.66 30.883-35.105 9.214-13.24 14.318-25.797 15.606-38.717.128-1.298-.46-2.676-1.508-3.476M46.232 141.67c-.56-.585-1.38-1.182-2.76-1.182-1.766 0-2.813 1.22-3.21 1.824-9.945 15.135-15.082 29.42-15.792 43.775a3.938 3.938 0 0 0 1.07 2.883 3.937 3.937 0 0 0 2.83 1.212h23.605a3.92 3.92 0 0 0 3.89-3.614c.515-6.92 2.67-13.854 6.59-21.142 1.36-2.52.304-4.89-.478-5.902-3.89-5.06-8.656-10.457-15.745-17.854"/><path d="M71.628 58.466c7.41 0 11.708-.445 13.218-.445 1.83 0 3.577 1.5 3.577 3.598 0 .612-.145 1.05-.288 1.437-.983 2.627-5.462 12.08-13.8 20.19-.937.91-1.997 1.08-2.727 1.08h-.01c-.728 0-1.787-.17-2.722-1.08-8.34-8.11-12.82-17.563-13.8-20.19-.145-.387-.29-.825-.29-1.437 0-2.098 1.75-3.597 3.58-3.597 1.51 0 5.805.446 13.213.446h.048"/></g></g></svg>