<svg width="256" height="256" viewBox="0 0 256 256" xmlns="http://www.w3.org/2000/svg" preserveAspectRatio="xMinYMin meet"><circle fill="#8A6343" cx="128" cy="128" r="128"/><path d="M43.25 118.182h2.288v6.324h.12a8.27 8.27 0 0 1 1.265-2.74 9.774 9.774 0 0 1 2.2-2.26 10.42 10.42 0 0 1 2.89-1.505c1.064-.36 2.18-.54 3.343-.54 1.486 0 2.77.19 3.855.57 1.086.383 2.01.885 2.772 1.507.763.622 1.365 1.325 1.807 2.108.44.783.742 1.576.903 2.38h.12c.924-2.17 2.16-3.805 3.705-4.91 1.546-1.104 3.584-1.656 6.114-1.656 1.405 0 2.7.21 3.885.63a8.147 8.147 0 0 1 3.072 1.93c.862.862 1.535 1.956 2.017 3.282.48 1.325.722 2.89.722 4.698v21.143h-2.29V127.94c0-1.968-.3-3.514-.903-4.638-.602-1.125-1.315-1.978-2.138-2.56-.825-.583-1.648-.944-2.47-1.085-.824-.14-1.457-.21-1.898-.21-1.406 0-2.7.24-3.886.722a8.25 8.25 0 0 0-3.072 2.168c-.863.964-1.536 2.158-2.018 3.584-.48 1.425-.722 3.062-.722 4.91v18.31h-2.29V127.94c0-1.928-.29-3.464-.873-4.608-.58-1.145-1.264-1.998-2.047-2.56-.783-.562-1.586-.924-2.41-1.084-.822-.16-1.475-.24-1.957-.24-1.084 0-2.208.22-3.373.66-1.164.443-2.23 1.126-3.192 2.05-.963.923-1.746 2.107-2.35 3.553-.6 1.447-.902 3.153-.902 5.12v18.313h-2.29v-30.96zm46.44 15.48c0-2.21.312-4.287.934-6.234.622-1.948 1.536-3.665 2.74-5.15a13.015 13.015 0 0 1 4.458-3.524c1.767-.863 3.795-1.295 6.084-1.295 2.29 0 4.317.43 6.084 1.294a13.015 13.015 0 0 1 4.457 3.524c1.205 1.485 2.118 3.202 2.74 5.15.623 1.947.934 4.025.934 6.234 0 2.21-.31 4.297-.932 6.265-.623 1.967-1.536 3.684-2.74 5.15-1.206 1.465-2.69 2.63-4.458 3.493-1.767.864-3.795 1.295-6.084 1.295-2.29 0-4.317-.43-6.084-1.295-1.767-.863-3.253-2.028-4.457-3.493-1.205-1.466-2.12-3.183-2.74-5.15-.623-1.968-.935-4.056-.935-6.265zm2.29 0c0 1.847.26 3.624.782 5.33.522 1.708 1.285 3.224 2.29 4.55a11.144 11.144 0 0 0 3.734 3.16c1.486.784 3.192 1.176 5.12 1.176 1.927 0 3.634-.392 5.12-1.175a11.144 11.144 0 0 0 3.734-3.162c1.004-1.324 1.767-2.84 2.29-4.547.52-1.707.782-3.484.782-5.33 0-1.848-.26-3.625-.783-5.332-.523-1.705-1.286-3.22-2.29-4.546a11.144 11.144 0 0 0-3.734-3.163c-1.486-.782-3.193-1.173-5.12-1.173-1.928 0-3.634.39-5.12 1.174a11.144 11.144 0 0 0-3.735 3.164c-1.003 1.325-1.766 2.84-2.288 4.547a18.122 18.122 0 0 0-.783 5.332zm54.813-5.903c-.12-1.366-.47-2.57-1.054-3.615a8.05 8.05 0 0 0-2.26-2.59c-.923-.683-1.997-1.205-3.222-1.566-1.225-.363-2.54-.543-3.946-.543-1.927 0-3.634.39-5.12 1.174a11.292 11.292 0 0 0-3.734 3.133c-1.004 1.306-1.767 2.79-2.29 4.458a17.128 17.128 0 0 0-.782 5.15c0 2.09.24 4.017.723 5.784.48 1.766 1.223 3.302 2.227 4.608a10.374 10.374 0 0 0 3.735 3.04c1.486.724 3.233 1.086 5.24 1.086 1.446 0 2.78-.24 4.006-.723a10.73 10.73 0 0 0 3.253-1.988 10.283 10.283 0 0 0 2.32-3.042 12.365 12.365 0 0 0 1.205-3.885h2.29c-.242 1.847-.744 3.494-1.507 4.94-.763 1.445-1.727 2.66-2.892 3.644a12.544 12.544 0 0 1-3.975 2.258 14.07 14.07 0 0 1-4.698.783c-2.53 0-4.688-.45-6.475-1.355-1.787-.903-3.253-2.118-4.397-3.644-1.144-1.526-1.988-3.283-2.53-5.27a23.59 23.59 0 0 1-.813-6.235c0-2.168.31-4.216.934-6.143.623-1.928 1.537-3.614 2.74-5.06 1.206-1.445 2.692-2.59 4.46-3.433 1.766-.844 3.794-1.265 6.082-1.265 1.687 0 3.263.21 4.73.63 1.465.423 2.77 1.055 3.914 1.9 1.145.842 2.078 1.916 2.8 3.22.724 1.306 1.166 2.822 1.326 4.55h-2.29zm10.24-21.625v18.673h.12a9.936 9.936 0 0 1 1.718-3.103 11.41 11.41 0 0 1 5.813-3.764c1.165-.32 2.35-.48 3.554-.48 1.807 0 3.343.22 4.608.66 1.265.443 2.3 1.025 3.102 1.748a8.44 8.44 0 0 1 1.898 2.44c.462.903.793 1.817.994 2.74.2.924.32 1.818.36 2.68.04.864.06 1.617.06 2.26v19.155h-2.29v-19.577c0-.763-.06-1.727-.18-2.89a8.79 8.79 0 0 0-1.054-3.344c-.582-1.064-1.465-1.978-2.65-2.74-1.185-.764-2.82-1.145-4.91-1.145-1.766 0-3.332.32-4.697.963a10.177 10.177 0 0 0-3.495 2.68c-.964 1.145-1.697 2.51-2.2 4.097-.5 1.586-.752 3.323-.752 5.21v16.746h-2.29v-43.008h2.29zM206.547 143h-.12a9.55 9.55 0 0 1-1.567 2.62 11.097 11.097 0 0 1-2.5 2.197c-.983.643-2.098 1.145-3.343 1.506-1.244.362-2.61.542-4.096.542-3.29 0-5.84-.712-7.648-2.138-1.808-1.426-2.71-3.624-2.71-6.596 0-1.806.36-3.282 1.083-4.426.723-1.144 1.637-2.048 2.74-2.71a11.757 11.757 0 0 1 3.675-1.416 35.95 35.95 0 0 1 3.885-.602l3.554-.302c1.646-.12 2.94-.31 3.884-.572.944-.26 1.657-.622 2.14-1.084.48-.462.782-1.054.902-1.777.12-.722.18-1.625.18-2.71 0-.843-.16-1.626-.48-2.35-.322-.722-.824-1.364-1.507-1.926-.683-.563-1.567-1.004-2.65-1.326-1.085-.32-2.41-.48-3.977-.48-2.77 0-5.01.68-6.716 2.047-1.706 1.365-2.64 3.433-2.8 6.204h-2.29c.16-3.415 1.255-5.975 3.283-7.68 2.028-1.708 4.91-2.56 8.644-2.56s6.455.732 8.162 2.197c1.706 1.466 2.56 3.384 2.56 5.753v18.01c0 .442.01.884.03 1.325.02.442.09.844.21 1.205.12.362.322.653.603.874.28.22.682.33 1.204.33.4 0 .964-.06 1.686-.18v1.928c-.602.16-1.224.24-1.867.24-.924 0-1.656-.12-2.2-.36-.54-.242-.952-.563-1.233-.965a3.567 3.567 0 0 1-.573-1.415 9.775 9.775 0 0 1-.15-1.777V143zm0-11.446c-.562.683-1.416 1.144-2.56 1.385-1.145.24-2.42.42-3.825.54l-3.855.363c-1.125.12-2.25.29-3.373.512-1.125.22-2.14.592-3.042 1.114a6.226 6.226 0 0 0-2.2 2.138c-.56.903-.842 2.078-.842 3.523 0 2.29.723 3.987 2.168 5.09 1.446 1.105 3.434 1.658 5.964 1.658 2.61 0 4.678-.472 6.204-1.416 1.526-.944 2.69-2.028 3.494-3.253.803-1.225 1.315-2.41 1.536-3.554.22-1.145.33-1.918.33-2.32v-5.782z" fill="#FFF"/></svg>