<svg width="256" height="295" viewBox="0 0 256 295" xmlns="http://www.w3.org/2000/svg" preserveAspectRatio="xMinYMin meet"><path d="M49.068 101.516c.036 30.473.08 60.946.038 91.418a50948.33 50948.33 0 0 1 79.022 45.758c26.328-15.224 52.656-30.45 78.984-45.673-.036-30.474-.08-60.947-.038-91.42a48928.59 48928.59 0 0 1-79.022-45.757c-26.328 15.225-52.656 30.45-78.984 45.673" fill="#B7A634"/><path d="M128.413 78.985l-.046-.024-.308-.172a27468.105 27468.105 0 0 1-59.255 34.204c-.005 22.84-.01 45.68-.012 68.518a30252.33 30252.33 0 0 1 59.332 34.238c5.034-2.967 54.195-31.297 59.256-34.205l.022-68.518c-19.682-11.31-39.35-22.66-58.99-34.04" fill="#F9DF34"/><path d="M92.587 126.98l1.653 2.864-3.134 1.81 4.455 7.712c.418.725.816 1.137 1.197 1.24.38.1.932-.057 1.656-.475a8.81 8.81 0 0 0 .675-.43c.21-.146.402-.3.58-.454l1.914 3.315c-.327.27-.706.54-1.136.816-.43.275-.857.536-1.28.778-.66.384-1.315.7-1.96.952s-1.268.377-1.87.377a3.22 3.22 0 0 1-1.714-.497c-.54-.33-1.036-.888-1.488-1.672l-5.306-9.192-2.592 1.498-1.654-2.863 2.593-1.496-2.697-4.67 4.28-2.47 2.696 4.67 3.133-1.81M95.187 117.565l4.68 8.106.09-.052c.02-1.216.334-2.275.94-3.173.606-.9 1.31-1.58 2.114-2.044 1.146-.662 2.174-1.047 3.088-1.16.913-.11 1.74-.012 2.48.296.743.31 1.426.81 2.056 1.506.627.695 1.22 1.525 1.777 2.49l5.533 9.58-4.278 2.472-5.08-8.8c-.742-1.284-1.497-2.128-2.264-2.528-.767-.402-1.662-.307-2.686.285-1.165.673-1.81 1.507-1.93 2.502-.123.995.274 2.285 1.19 3.873l4.715 8.166-4.28 2.47-12.423-21.515 4.28-2.47M122.115 125.724c1 .252 2.105.03 3.31-.667.864-.498 1.484-1.144 1.856-1.936.375-.79.494-1.467.355-2.03l3.766-2.175c.478 2.216.326 4.085-.457 5.608-.78 1.524-2.056 2.794-3.823 3.815-1.226.707-2.445 1.15-3.654 1.326-1.21.177-2.366.1-3.467-.23-1.1-.326-2.127-.887-3.08-1.676-.95-.79-1.774-1.787-2.47-2.993-.673-1.165-1.108-2.36-1.307-3.585a8.82 8.82 0 0 1 .123-3.545c.28-1.14.784-2.2 1.516-3.187.73-.983 1.687-1.818 2.873-2.502 1.326-.766 2.63-1.176 3.91-1.232a7.968 7.968 0 0 1 3.616.664c1.134.497 2.16 1.22 3.078 2.16a12.72 12.72 0 0 1 2.302 3.29l-11.24 6.49c.86 1.353 1.79 2.154 2.795 2.406zm.104-10.99c-.838-.266-1.78-.098-2.824.505-.683.393-1.184.838-1.502 1.33-.318.49-.516.986-.59 1.483-.072.5-.056.97.055 1.417.11.445.24.824.394 1.137l6.96-4.018c-.827-.97-1.66-1.588-2.495-1.855zM130.555 105.06l1.252 2.17.09-.052c.022-1.217.345-2.28.97-3.193a7.052 7.052 0 0 1 2.296-2.148c1.145-.66 2.174-1.048 3.087-1.16.913-.112 1.74-.013 2.48.297.742.308 1.426.81 2.055 1.506.628.695 1.22 1.524 1.778 2.487l5.532 9.584-4.278 2.47-5.08-8.797c-.742-1.287-1.497-2.13-2.265-2.53-.766-.4-1.662-.307-2.687.284-1.164.674-1.81 1.508-1.93 2.5-.122.996.275 2.288 1.19 3.874l4.716 8.168-4.28 2.47-8.993-15.58 4.068-2.348" fill="#524739"/><path d="M189.056 109.455a18918.443 18918.443 0 0 1-58.424-33.76c-.02-.01-.084-.05-.104-.06l-.304-.17a4.423 4.423 0 0 0-4.39.033 26580.092 26580.092 0 0 1-58.69 33.926 4.43 4.43 0 0 0-2.218 3.838l-.01 67.976c0 1.583.846 3.048 2.216 3.84 19.6 11.302 39.195 22.615 58.77 33.96a4.43 4.43 0 0 0 4.476-.016 990.265 990.265 0 0 1 8.78-5.106 1383.19 1383.19 0 0 0 6.224-3.602c2.107-1.23 27.62-15.94 28.634-16.532a7102.982 7102.982 0 0 1 15.015-8.667 4.435 4.435 0 0 0 2.224-3.84l.023-67.978c0-1.587-.847-3.05-2.22-3.842zm-6.664 69.254c-2.992 1.723-52.08 30.08-54.284 31.365a30156.402 30156.402 0 0 0-54.33-31.397l.01-62.854c18.102-10.44 36.198-20.89 54.274-31.374a19819.24 19819.24 0 0 0 54.35 31.41l-.02 62.85z" fill="#524839"/><path d="M4.895 76.045c.057 47.437.125 94.875.06 142.314a79607.16 79607.16 0 0 1 123.194 71.228c41.044-23.698 82.09-47.4 123.136-71.097-.058-47.438-.126-94.875-.06-142.314C210.136 52.48 169.08 28.72 128.03 4.946L4.896 76.047zm123.622-19.752c26.166 15.162 52.37 30.28 78.595 45.35l-.03 91.292a8451.297 8451.297 0 0 0-20.207 11.65c-13.5-23.352-26.98-46.716-40.462-70.08l-38.53 22.21c13.48 23.365 26.962 46.73 40.46 70.084-6.727 3.918-13.502 7.755-20.208 11.707a39961.24 39961.24 0 0 0-79.052-45.616l.015-91.29a35390.488 35390.488 0 0 0 78.948-45.572l.41.23.06.035z" fill="#F9DF34"/><path d="M128.15 294.16a4.57 4.57 0 0 1-2.292-.616A75322.8 75322.8 0 0 0 2.668 222.32a4.573 4.573 0 0 1-2.286-3.97C.442 174.366.39 129.64.336 86.385L.323 76.05a4.57 4.57 0 0 1 2.287-3.964L125.746.986a4.58 4.58 0 0 1 4.576.004c36.6 21.197 79.858 46.236 123.19 71.227a4.573 4.573 0 0 1 2.288 3.966c-.063 43.743-.01 88.22.042 131.233l.015 11.07a4.575 4.575 0 0 1-2.286 3.965l-123.136 71.097a4.563 4.563 0 0 1-2.285.613zM9.53 215.72a79099.428 79099.428 0 0 1 118.623 68.587l118.556-68.452-.01-8.427c-.05-42.152-.103-85.71-.05-128.612a77894.477 77894.477 0 0 1-118.623-68.59L9.47 78.683l.01 7.692c.05 42.393.105 86.2.05 129.346zm118.605 27.36c-.79 0-1.582-.207-2.29-.617A39147.95 39147.95 0 0 0 46.8 196.855a4.575 4.575 0 0 1-2.29-3.964l.016-91.292c0-1.634.875-3.145 2.29-3.96a33622.805 33622.805 0 0 0 78.938-45.567 4.58 4.58 0 0 1 4.537-.026l.41.233a26300.48 26300.48 0 0 0 78.69 45.404 4.574 4.574 0 0 1 2.294 3.965l-.028 91.29a4.575 4.575 0 0 1-2.297 3.963c-6.74 3.87-13.47 7.757-20.2 11.643a4.57 4.57 0 0 1-6.244-1.67 104453 104453 0 0 1-38.18-66.126l-30.608 17.646A101141.6 101141.6 0 0 0 152.3 224.51a4.57 4.57 0 0 1-1.656 6.238c-2.794 1.627-5.597 3.242-8.4 4.856-3.938 2.267-7.875 4.534-11.788 6.84a4.57 4.57 0 0 1-2.32.635zm-74.48-52.832a40186.547 40186.547 0 0 1 74.463 42.968c3.18-1.86 6.372-3.697 9.564-5.536l4.418-2.547A101170.714 101170.714 0 0 1 103.922 159a4.573 4.573 0 0 1 1.677-6.246l38.53-22.21a4.57 4.57 0 0 1 6.242 1.676c12.72 22.044 25.44 44.086 38.173 66.12 4.654-2.686 9.308-5.374 13.968-8.052l.026-86a25992.844 25992.844 0 0 1-74.488-42.982 34191.955 34191.955 0 0 1-74.383 42.936l-.015 86.006z" fill="#524839"/></svg>