<svg width="256" height="230" viewBox="0 0 256 230" xmlns="http://www.w3.org/2000/svg" preserveAspectRatio="xMinYMin meet"><path d="M.754 114.75c0 19.215 18.763 37.152 48.343 47.263-5.907 29.737-1.058 53.706 15.136 63.045 16.645 9.6 41.443 2.955 64.98-17.62 22.943 19.744 46.13 27.514 62.31 18.148 16.63-9.627 21.687-35.22 15.617-65.887 30.81-10.187 48.044-25.482 48.044-44.95 0-18.77-18.797-35.006-47.98-45.052 6.536-31.933 1-55.32-15.866-65.045-16.26-9.376-39.716-1.204-62.996 19.056C104.122 2.204 80.897-4.36 64.05 5.39 47.805 14.795 43.17 39.2 49.096 69.487 20.515 79.452.754 96.057.754 114.75z" fill="#FFF"/><path d="M201.025 79.674a151.171 151.171 0 0 0-7.274-2.292c.412-1.678.79-3.333 1.125-4.96 5.506-26.73 1.906-48.26-10.388-55.35-11.787-6.797-31.065.29-50.535 17.234a151.325 151.325 0 0 0-5.626 5.163 139.67 139.67 0 0 0-3.744-3.46c-20.405-18.117-40.858-25.75-53.14-18.642-11.775 6.817-15.263 27.06-10.306 52.39a150.964 150.964 0 0 0 1.67 7.484c-2.894.822-5.69 1.698-8.363 2.63-23.922 8.34-39.2 21.412-39.2 34.97 0 14.004 16.4 28.05 41.318 36.566 1.967.672 4.008 1.308 6.11 1.91a147.94 147.94 0 0 0-1.774 8.067c-4.726 24.89-1.035 44.653 10.71 51.428 12.13 6.995 32.49-.195 52.317-17.525 1.567-1.37 3.14-2.823 4.715-4.346a147.44 147.44 0 0 0 6.108 5.573c19.204 16.525 38.17 23.198 49.905 16.405 12.12-7.016 16.06-28.247 10.945-54.078-.39-1.973-.845-3.988-1.355-6.04 1.43-.422 2.833-.858 4.202-1.312 25.904-8.582 42.757-22.457 42.757-36.648 0-13.607-15.77-26.767-40.175-35.168z" fill="#53C1DE"/><path d="M195.406 142.328c-1.235.41-2.503.804-3.795 1.187-2.86-9.053-6.718-18.68-11.44-28.625 4.506-9.71 8.216-19.213 10.996-28.208 2.31.67 4.555 1.375 6.717 2.12 20.91 7.197 33.664 17.84 33.664 26.04 0 8.735-13.775 20.075-36.14 27.486zm-9.28 18.39c2.26 11.42 2.584 21.748 1.086 29.82-1.346 7.255-4.052 12.09-7.398 14.028-7.12 4.122-22.35-1.236-38.772-15.368a138.39 138.39 0 0 1-5.682-5.18c6.367-6.964 12.73-15.06 18.94-24.05 10.924-.97 21.244-2.554 30.603-4.717.46 1.86.87 3.684 1.223 5.467zm-93.85 43.136c-6.957 2.457-12.498 2.527-15.847.596-7.13-4.11-10.092-19.98-6.05-41.265a137.766 137.766 0 0 1 1.65-7.502c9.255 2.047 19.5 3.52 30.45 4.408 6.25 8.798 12.798 16.884 19.396 23.965a118.497 118.497 0 0 1-4.305 3.964c-8.766 7.663-17.55 13.1-25.293 15.834zm-32.593-61.58c-11.018-3.766-20.117-8.66-26.354-14-5.605-4.8-8.435-9.565-8.435-13.432 0-8.227 12.267-18.722 32.726-25.855 2.483-.865 5.082-1.68 7.778-2.447 2.828 9.197 6.537 18.813 11.013 28.537-4.533 9.87-8.295 19.638-11.15 28.943a118.454 118.454 0 0 1-5.577-1.746zm10.926-74.37C66.36 46.2 69.18 29.83 76.28 25.72c7.558-4.376 24.274 1.864 41.892 17.507 1.126 1 2.257 2.046 3.39 3.128-6.564 7.05-13.05 15.075-19.248 23.82-10.627.986-20.8 2.568-30.152 4.687-.588-2.366-1.11-4.69-1.553-6.962zm97.466 24.067a309.107 309.107 0 0 0-6.87-11.3c7.208.912 14.116 2.122 20.602 3.602-1.947 6.24-4.374 12.767-7.232 19.457a336.657 336.657 0 0 0-6.5-11.76zM128.33 53.258c4.45 4.823 8.91 10.21 13.296 16.052-4.42-.21-8.894-.318-13.405-.318-4.467 0-8.908.106-13.3.31 4.39-5.788 8.887-11.166 13.41-16.045zm-40.003 38.78a286.177 286.177 0 0 0-6.378 11.685c-2.812-6.667-5.217-13.222-7.18-19.552 6.446-1.443 13.32-2.622 20.484-3.517a284.306 284.306 0 0 0-6.927 11.384zm7.133 57.683c-7.4-.826-14.38-1.945-20.824-3.348 1.995-6.442 4.453-13.138 7.324-19.948a284.244 284.244 0 0 0 13.5 23.296zm33.136 27.39c-4.575-4.938-9.138-10.398-13.595-16.27 4.327.17 8.738.255 13.22.255 4.607 0 9.16-.103 13.64-.303-4.4 5.98-8.842 11.448-13.264 16.317zm46.072-51.033c3.02 6.884 5.566 13.544 7.588 19.877-6.552 1.495-13.625 2.7-21.078 3.593a338.879 338.879 0 0 0 6.937-11.498c2.3-3.992 4.487-7.99 6.553-11.973zm-14.915 7.15a316.672 316.672 0 0 1-10.84 17.49c-6.704.48-13.632.726-20.692.726-7.03 0-13.87-.22-20.457-.646a273.687 273.687 0 0 1-20.684-35.723 273.518 273.518 0 0 1 9.61-18.216v.002a271.656 271.656 0 0 1 10.956-17.442 273.484 273.484 0 0 1 41.189.006 290.492 290.492 0 0 1 10.887 17.383c3.544 6.12 6.8 12.183 9.742 18.13a288.81 288.81 0 0 1-9.71 18.29zm19.913-107.792c7.566 4.364 10.51 21.96 5.755 45.038a124.626 124.626 0 0 1-1.015 4.492c-9.374-2.163-19.554-3.773-30.212-4.773-6.21-8.84-12.642-16.88-19.1-23.838 1.736-1.67 3.47-3.263 5.196-4.766 16.68-14.518 32.272-20.25 39.376-16.153z" fill="#FFF"/><path d="M128.22 94.665c11.145 0 20.178 9.034 20.178 20.177 0 11.144-9.033 20.178-20.177 20.178-11.142 0-20.176-9.034-20.176-20.178 0-11.143 9.034-20.177 20.177-20.177" fill="#53C1DE"/></svg>