<svg width="256" height="253" viewBox="0 0 256 253" xmlns="http://www.w3.org/2000/svg" preserveAspectRatio="xMinYMin meet"><g fill="#264970"><path d="M156.487 127.66c0-16.48-13.353-29.84-29.833-29.84-16.482 0-29.834 13.36-29.837 29.84 0 16.472 13.35 29.83 29.837 29.83 16.478 0 29.833-13.358 29.833-29.83M223.534 200.71l-15.514-8.956a4.75 4.75 0 0 0-5.928.958c-19.092 21.48-46.447 33.803-75.05 33.808-28.61 0-55.964-12.322-75.056-33.806a4.754 4.754 0 0 0-5.93-.958l-15.514 8.958a4.75 4.75 0 0 0-1.266 7.168c24.36 29.073 59.995 45.747 97.767 45.747 37.766-.006 73.398-16.683 97.757-45.75a4.748 4.748 0 0 0-1.266-7.17"/><path d="M142.488 201.877c.376 0 .755-.04 1.13-.127 34.394-7.68 59.36-38.823 59.36-74.052 0-7.74-1.172-15.387-3.48-22.73a5.192 5.192 0 0 0-3.066-3.275 5.197 5.197 0 0 0-4.473.342l-9.253 5.34a5.19 5.19 0 0 0-2.41 5.853 55.06 55.06 0 0 1 1.94 14.47c0 24.998-16.89 46.924-41.075 53.32a5.19 5.19 0 0 0-3.86 5.015v10.658a5.187 5.187 0 0 0 5.184 5.186M127.613 50.292c-21.125 0-41.472 8.953-55.833 24.57a5.19 5.19 0 0 0 1.224 8.003l9.232 5.332a5.178 5.178 0 0 0 6.27-.84c10.45-10.518 24.337-16.312 39.107-16.312s28.66 5.793 39.11 16.31a5.187 5.187 0 0 0 6.267.838l9.237-5.33a5.193 5.193 0 0 0 2.53-3.707 5.19 5.19 0 0 0-1.31-4.297C169.09 59.242 148.74 50.29 127.613 50.29"/><path d="M32.266 158.405a99.923 99.923 0 0 1-5.157-31.692c.007-47.497 33.76-88.897 80.25-98.42a4.753 4.753 0 0 0 3.8-4.655V5.758a4.75 4.75 0 0 0-1.694-3.636 4.728 4.728 0 0 0-3.874-1.045C44.42 11.74.012 64.57 0 126.71c0 15.046 2.61 29.785 7.756 43.81a4.745 4.745 0 0 0 2.843 2.83 4.747 4.747 0 0 0 3.995-.352l15.54-8.974a4.752 4.752 0 0 0 2.13-5.62"/><path d="M71.32 107.376l-9.25-5.34a5.19 5.19 0 0 0-4.473-.342 5.194 5.194 0 0 0-3.065 3.277 75.7 75.7 0 0 0-3.483 22.727c0 35.234 24.963 66.38 59.356 74.056a5.03 5.03 0 0 0 1.128.127 5.188 5.188 0 0 0 5.186-5.188v-10.657a5.188 5.188 0 0 0-3.858-5.015C88.68 174.625 71.79 152.698 71.79 127.7c0-4.874.653-9.743 1.94-14.47a5.186 5.186 0 0 0-2.41-5.854M149.912 1.075c-1.38-.24-2.8.14-3.874 1.045a4.75 4.75 0 0 0-1.693 3.637v17.88a4.754 4.754 0 0 0 3.798 4.655c46.502 9.52 80.253 50.92 80.253 98.415a99.96 99.96 0 0 1-5.158 31.696 4.75 4.75 0 0 0 2.132 5.62l15.54 8.97a4.745 4.745 0 0 0 3.995.354 4.747 4.747 0 0 0 2.843-2.83c5.147-14.025 7.756-28.764 7.756-43.81 0-62.14-44.407-114.972-105.59-125.632"/></g></svg>