<svg width="256" height="329" viewBox="0 0 256 329" xmlns="http://www.w3.org/2000/svg" preserveAspectRatio="xMinYMin meet"><path d="M254.646 89.417c-.12-.93-.263-1.86-.455-2.77-.177-.942-.363-1.817-.66-2.837l-.71-1.128c-2.93-2.3-6.09-4.038-9.297-5.574-2.648-1.25-5.338-2.34-8.06-3.344-7.585-21.05-20.624-39.717-37.768-52.723C179.975 7.6 159.133.483 137.427.483c-21.707 0-42.55 7.116-60.27 20.56C60.012 34.047 46.972 52.714 39.388 73.77c-2.716 1-5.41 2.093-8.055 3.338-3.214 1.536-6.372 3.274-9.3 5.574l-.714 1.128a39.566 39.566 0 0 0-.66 2.836c-.184.912-.322 1.84-.454 2.77a62.163 62.163 0 0 0-.534 5.552A69.783 69.783 0 0 0 20 106.116a70.724 70.724 0 0 0 2.063 10.986 59.073 59.073 0 0 0 1.795 5.354c.344.886.72 1.766 1.137 2.645.206.438.43.865.66 1.312.51.892.602 1.066.816 1.383l.963.886c.627.323 1.146.568 1.713.837l1.657.743c.307.126.595.25.908.376-7.524 6.957-15.696 15.995-22.773 27.165L0 171.9l12.547-11.012c.213-.186 10.734-9.294 28.28-19.612l.246 2.017c-1.148.597-6.665 3.492-8.305 4.864-2.718 2.257-2.85 5.76-2.122 12.295.373 3.35 1.63 9.852 3.323 15.814 2.917 10.26 5.056 12.073 6.934 12.498.847.203 1.94.296 3.17.296 3.36 0 7.666-.654 10.475-1.502 3.294 10.246 7.96 19.496 13.65 27.614-.274.074-.545.163-.82.24-3.422-1.586-15.388-7.13-19.41-8.937l-8.405-3.784 4.97 7.763c.363.56 8.944 13.94 15.95 22.958 6.552 8.41 15.524 17.02 32.454 17.02 2.037 0 4.17-.132 6.366-.374 5.048-.58 8.842-1.035 11.726-1.405 17.772 6.53 37.37 6.933 55.966-.114a81.884 81.884 0 0 0 13.985-6.907c7.17-1.723 15.013-3.592 18.887-4.68.62-.168 1.4-.353 2.208-.544 5.398-1.24 14.42-3.335 19.23-12.958 4.848-9.71 12.753-24.586 12.836-24.738l3.697-6.94-7.202 3.13c-.385.176-9.51 4.15-14.252 6.635 3.294-7.584 5.235-13.862 5.91-16.273 2.656.64 6.592.558 9.487.558 1.423 0 2.887-.248 3.837-.49 1.882-.478 3.335-1.728 6.067-12.314 1.59-6.153 2.732-12.853 3.045-16.297.605-6.703.41-10.295-2.326-12.562-1.363-1.126-5.363-3.28-7.397-4.34 1.137-.487 1.695-.344 1.738-.332l1.847-7.003c.65-.278 1.338-.557 2.12-.857 1.115-.444 2.23-.885 3.346-1.366l1.648-.743c.574-.27 1.09-.513 1.718-.836l.962-.885c.208-.317.32-.49.447-.733.61-1.097.825-1.524 1.028-1.96.417-.88.787-1.76 1.137-2.646a58.714 58.714 0 0 0 1.792-5.354c.98-3.63 1.678-7.29 2.067-10.986.414-3.7.507-7.427.32-11.148a58.692 58.692 0 0 0-.534-5.55z" fill="#0E0F0D"/><path d="M149.066 233.63c-1.36.204-2.72.37-4.064.478-.875.043-1.793.13-2.63.13l-.312.008c1.05-2.34 1.848-4.16 2.45-5.538 1.23 1.378 2.793 3.08 4.556 4.922" fill="#E1C5A2"/><path d="M147.416 129.004c-2.126 1.726-4.366 3.333-6.7 4.743l-7.78 4.694c-4.88.597-9.116 1.803-9.358 1.877a1.34 1.34 0 0 0-.402.173 1.803 1.803 0 0 0-.805 1.018l-7.924 26.11-42.357 9.42-13.346-9.345-3.88-31.44c7.58-1.392 17.71-2.998 29.88-4.364a72.312 72.312 0 0 0-3.77 4.917l-7.245 10.4 10.55-7.034c.16-.11 6.874-4.53 17.864-9.908a482.942 482.942 0 0 1 35.98-1.35c3.16 0 6.253.038 9.292.09zm-65.93 35.42c3.01-1.627 6.41-1.388 11.733-1.376.566.01 1.157.004 1.768-.012.526 0 1.05-.01 1.608-.026 5.486-.055 10.043.464 9.96-8.142-.08-8.607-3.907-15.568-9.39-15.514-5.48.05-10.785 7.103-10.457 15.706.086 2.24.418 3.86.945 5.022-4.777 1.2-6.1 4.156-6.17 4.342zM220.83 136.15l-3.814 26.733-13.453 9.422-42.302-4.808-7.892-25.99a1.778 1.778 0 0 0-1.208-1.19c-.26-.08-5.497-1.577-11.05-2.057l1.017-.067c.875-.066 15.463-1.852 32.888-7.856 19.29 1.48 35.048 3.847 45.816 5.813zm-27.027 24.745c-.055-.208-1.216-3.666-6.308-3.06.584-1.28.848-3.006.663-5.376-.672-8.59-5.674-15.418-11.15-15.225-5.482.19-8.988 7.31-8.685 15.93.302 8.598 4.896 8.54 10.378 8.343 7.363-.14 11.405-2.4 15.103-.613z" fill="#A89983"/><path d="M179.33 145.43a2.802 2.802 0 0 1-2.748 2.85 2.797 2.797 0 0 1-2.847-2.748 2.795 2.795 0 0 1 2.744-2.852 2.79 2.79 0 0 1 2.85 2.75M100.813 147.49a2.8 2.8 0 0 1-2.722 2.87 2.8 2.8 0 0 1-2.883-2.727 2.798 2.798 0 0 1 2.732-2.87 2.803 2.803 0 0 1 2.873 2.727" fill="#FFF"/><path d="M239.295 147.91c-.66-.546-2.87-1.808-5.023-2.972l-3.545 24.85c-.072.473-.34.917-.744 1.2l-5.073 3.548c-.12.6-.214 1.1-.304 1.57 4.984 1.227 9.825-2.367 12.543-4.96 1.256-4.896 2.35-10.708 2.73-14.868.578-6.448.066-7.832-.585-8.367M160.952 242.317c-3.29-1.17-6.308-3.08-8.934-5.676-.22-.222-.427-.437-.647-.655a53.717 53.717 0 0 1-6.222.894c-.892.04-1.743.115-2.673.115l-1.376.012-.53-.012c-3.147 4.672-8.435 7.24-12.58 8.607 12.31 2.112 25.856-1.12 32.962-3.285M52.585 181.46c-.11-.376-.226-.747-.333-1.123l-6.59-4.613a1.79 1.79 0 0 1-.743-1.24l-3.214-26.093c-2.378 1.27-5.127 2.836-5.858 3.45-.636.524-1.12 1.862-.434 8.08.522 4.674 2.164 11.855 3.84 17.236 3.338 2.553 8.253 5.243 13.33 4.303M151.102 180.268c-.7-.078-1.29-.57-1.498-1.253l-8.132-26.8c-1.364-.177-2.574-.277-3.596-.277-1.026 0-2.23.1-3.592.278l-7.905 26.028a1.778 1.778 0 0 1-1.314 1.212l-3.78.842c-.32 1.335-1.408 3.294-4.913 4.368-5.656 1.725-41.46 12.398-45.544 11.817-2.385-.334-6.92-2.837-10.276-4.86-1.343-3.162-2.086-5.31-2.256-5.82v-.01l-.01.01c.475 1.387 5.147 14.836 14.64 27.99 10.177-2.998 18.967-5.794 21.778-6.683 5.724-8.828 13.88-17.587 19.672-17.886a62.45 62.45 0 0 1 3.064-.08c2.838 0 5.547.2 8.062.5-2.136-1.94-2.574-4.207-2.884-5.214 0 0 7.397 5.786 16.806 4.57 9.424-1.207 15.27-6.634 15.27-6.634l.185-1.67-3.778-.428" fill="#E1C5A2"/><path d="M158.75 183.66c-1.952-.505-3.18-1.31-3.96-2.15l-.096.856s-.032 3.955-4.13 7.02c7.89-2.39 11.154-3.2 13.39-3.2 2.458 0 3.675 1.026 4.742 1.928.202.168.404.345.646.534a3228.14 3228.14 0 0 1 15.497 12.28c2.47.285 10.31 1.182 15.245 1.632 2.84.265 5.415.48 7.935.48.808 0 1.572-.03 2.295-.078 2.602-4.984 4.998-10.496 7.13-16.574-2.918 2.047-9.567 6.527-12.683 7.104-4.052.76-40.297-8.35-46.012-9.832" fill="#E1C5A2"/><path d="M249.954 89.94a59.265 59.265 0 0 0-.267-2.562 30.12 30.12 0 0 0-.27-1.82c-2.29-1.924-4.893-3.64-7.6-5.19-2.934-1.723-6.005-3.254-9.14-4.68-3.11-1.47-6.31-2.798-9.52-4.093a155.678 155.678 0 0 0-4.85-1.885c-1.62-.633-3.253-1.223-4.893-1.82 3.437.57 6.846 1.357 10.23 2.226 2.2.562 4.388 1.2 6.56 1.885-15.465-40.406-52.422-66.717-92.778-66.717-40.36 0-77.316 26.312-92.77 66.718a125.48 125.48 0 0 1 6.553-1.884c3.38-.87 6.79-1.655 10.234-2.225-1.65.597-3.28 1.187-4.908 1.82-1.617.602-3.235 1.23-4.842 1.885-3.213 1.295-6.406 2.624-9.525 4.094-3.126 1.424-6.196 2.955-9.133 4.677-2.71 1.552-5.306 3.267-7.6 5.192a54.427 54.427 0 0 0-.27 1.818 83.896 83.896 0 0 0-.27 2.563 65.392 65.392 0 0 0-.22 5.183c-.038 3.463.197 6.927.633 10.35.476 3.437 1.105 6.85 2.036 10.154.456 1.65.98 3.277 1.584 4.856.305.787.634 1.568.978 2.32.17.375.344.747.526 1.102l.222.42c.253.127.52.262.77.383l1.536.733c.858.395 2.046.958 3.027 1.396.054-.05.11-.1.153-.148l-2.852-10.865c.607-.163 6.023-1.563 15.357-3.344a45.4 45.4 0 0 1-2.257-.48c-2.125-.533-4.223-1.177-6.258-1.997-1.006-.427-2-.89-2.945-1.426-.945-.546-1.874-1.16-2.597-1.978 10.253 3.35 31.446 1.835 50.286-.115 17.225-1.777 34.502-2.924 51.86-2.963 17.356.04 34.64 1.186 51.855 2.963 18.85 1.95 40.04 3.464 50.293.114-.715.818-1.65 1.43-2.587 1.977-.954.535-1.95 1-2.955 1.426-2.032.82-4.122 1.464-6.25 1.996-.316.074-.635.14-.95.21 10.24 1.9 16.198 3.444 16.83 3.612l-2.726 10.35c.554-.24 1.11-.48 1.644-.732l1.54-.733c.253-.12.516-.256.777-.383l.207-.42c.186-.355.367-.727.534-1.103.345-.75.674-1.53.974-2.318a55.85 55.85 0 0 0 1.586-4.856c.933-3.303 1.562-6.718 2.03-10.154.446-3.423.682-6.887.65-10.35a62.848 62.848 0 0 0-.232-5.18" fill="#E0D896"/><path d="M179.887 69.842c.158 4.622.045 13.01-2.11 20.858-.087.3-.075.613 0 .903a339.6 339.6 0 0 0-8.228-.76c3.075-6.45 3.747-13.318 3.897-15.74 2.364-1.676 4.715-3.693 6.44-5.26M101.414 75.104c.143 2.42.815 9.272 3.89 15.723-2.743.217-5.486.47-8.223.76.075-.278.08-.586 0-.886-2.148-7.835-2.263-16.223-2.115-20.857 1.733 1.567 4.078 3.584 6.45 5.26M213.574 98.006a1.697 1.697 0 0 1-.057.23c.3.087.596.175.897.273 2.536.83 5.075 1.7 7.5 2.82-4.048-2.63-6.615-10.218-8.046-16.018.394 7.592-.257 12.407-.294 12.694M91.59 68.383L65.406 75.83c-1.568 10.185-1.09 17.963-.838 20.662l.133-.08s.854-11.094 2.593-15.352c.896-2.186 6.377-3.58 10.555-4.58 4.188-.993 10.865-2.987 12.16 2.892.8 3.633 1.903 6.654 2.96 8.882-1.683-8.077-1.576-15.975-1.378-19.87M183.26 68.383c.214 4.048.313 12.415-1.585 20.815 1.19-2.282 2.51-5.648 3.432-9.826 1.294-5.88 7.97-3.885 12.158-2.89 4.187 1 9.66 2.392 10.557 4.578 1.476 3.604 2.31 12.1 2.53 14.628.25-3.25.525-10.55-.902-19.86l-26.19-7.445M101.206 70.65a45.28 45.28 0 0 0 2.85 2.11c.457.318.737.836.747 1.394.006.087.202 8.714 4.016 16.06.054.11.093.23.13.344 9.482-.645 18.992-.906 28.478-.912 9.492.006 18.996.285 28.473.934.04-.125.074-.246.14-.366 3.81-7.346 4.014-15.973 4.014-16.06a1.74 1.74 0 0 1 .753-1.394 44.62 44.62 0 0 0 2.742-2.037l.118-.336c1.983-19.297-1.653-37.08-3.964-45.866-.122 6.01-1.546 57.487-14.32 57.487H120.126c-13.565 0-14.656-58.04-14.656-58.04l-.698 2.06c-2.314 9.256-5.49 26.267-3.566 44.623M61.337 98.23c-.012-.074-.033-.147-.05-.224-.042-.287-.696-5.108-.302-12.707-1.432 5.803-4.006 13.403-8.06 16.032 2.425-1.125 4.975-1.996 7.515-2.828.296-.093.6-.18.897-.273" fill="#D7C184"/><path d="M224.607 176.106a56.263 56.263 0 0 1-.75 3.406c2.908.678 7.662 1.204 9.935.76.973-1.057 2.23-4.723 3.358-9.127-2.718 2.594-7.56 6.188-12.543 4.96M120.404 247.28c6.945 1.902 14.04 2.727 21.028 2.264 7.012-.477 16.115-1.99 25.778-5.913a23.9 23.9 0 0 1-6.258-1.312c-7.106 2.166-20.65 5.398-32.96 3.286-3.26 1.073-5.814 1.406-6.063 1.437-.515.06-.94.13-1.526.24M53.044 183.016c-.16-.517-.307-1.038-.46-1.557-5.078.94-9.993-1.75-13.327-4.302 1.08 3.454 2.17 6.17 2.984 6.994 2.516.44 8.08-.332 10.804-1.136M60.553 191.623c3.354 2.023 7.89 4.527 10.275 4.86 4.083.58 39.888-10.092 45.544-11.817 3.504-1.074 4.594-3.033 4.914-4.368L69.63 191.8c-.13.023-.262.04-.386.04h-.006c-.356 0-.713-.11-1.017-.32l-2.01-1.405-6.035-4.226v-.01l-2.435-1.7c.042.138.092.275.137.41.138.402.274.808.42 1.202v.01c.17.51.913 2.66 2.256 5.82M219.007 181.7c.33-1.22.654-2.455.95-3.702l-1.794 1.26-4.827 3.38-5.22 3.66c-.27.185-.58.296-.9.32a1.807 1.807 0 0 1-.32-.007l-52.015-5.913-.087.81c.778.842 2.007 1.647 3.958 2.152 5.716 1.48 41.96 10.59 46.012 9.83 3.116-.577 9.767-5.057 12.682-7.104a185.21 185.21 0 0 0 .743-2.17c.278-.83.55-1.667.82-2.517" fill="#9F8F78"/><path d="M163.97 111.62c-.41.53-.858 1.11-1.34 1.715-2.47 3.122-5.892 7.104-9.945 11.01a464.67 464.67 0 0 0-14.56-.228c-8.246 0-16.153.217-23.66.578 10.612-4.398 23.356-8.698 37.16-11.278a142.87 142.87 0 0 1 12.345-1.798M101.884 116.37c-3.793 2.66-8.066 6.053-12.213 10.173a462.456 462.456 0 0 0-27.524 3.584c11.748-5.397 25.158-10.37 39.738-13.758M231.64 138.294l-4.324 30.217-20.694 14.5-53.97-6.136-8.12-26.756a1.778 1.778 0 0 0-1.415-1.24c-1.998-.323-3.765-.48-5.24-.48-1.48 0-3.247.157-5.258.48a1.8 1.8 0 0 0-1.412 1.24l-7.922 26.105-53.665 11.94-21.267-14.897-4.197-33.913a670.57 670.57 0 0 1 2.78-1.54c1.32-.285 2.8-.585 4.438-.896l3.95 32c.055.498.335.94.746 1.227l14.635 10.253c.294.203.655.318 1.008.318.13 0 .257-.018.395-.044l44.122-9.815c.153-.038.3-.092.44-.16.406-.22.732-.594.865-1.057l7.95-26.16c2.132-.545 7.593-1.825 12.39-1.825 4.788 0 10.247 1.28 12.384 1.825l7.945 26.16c.203.676.797 1.17 1.496 1.25l44.13 5.014c.424.05.86-.068 1.21-.314l14.64-10.234c.395-.285.666-.727.734-1.208l3.908-27.345a318.48 318.48 0 0 1 7.318 1.494M237.088 119.34l-3.8 14.412c-7.77-1.714-24.83-5.077-48.055-7.34 7.585-3.235 15.312-7.288 22.373-12.366 13.82 1.952 23.967 4.048 29.482 5.295M39.176 119.34l1.056 3.99a133.31 133.31 0 0 1 7.945-5.86c-3.72.713-6.756 1.363-9 1.87" fill="#6E6A67"/><path d="M188.184 111.304c-5.816-.33-11.63-.608-17.45-.85a91.534 91.534 0 0 1-2.004 2.844c-3.118 4.218-9.264 11.908-17.143 18.506 5.928-1.878 29.444-9.767 41.355-20.207-1.586-.102-3.17-.202-4.758-.293M145.566 109.768l.024-.006a986.9 986.9 0 0 0-8.847-.08h-.006c-4.34.01-8.667.066-13.006.14l-8 3.793a.476.476 0 0 0-.117.067c-1.204.584-11.706 5.884-21.594 15.34.864-.457 1.78-.93 2.726-1.408 5.408-3.634 19.83-12.24 42.26-17.91 2.186.013 4.374.026 6.56.064M96.405 110.734c-3.704.17-7.41.36-11.11.57-4.292.24-8.57.53-12.845.852-2.132.164-4.267.346-6.38.568-.615.06-1.215.126-1.816.203-5.586 3.34-26.964 16.76-41.652 34.324.253-.304.514-.605.773-.906 27.193-23.2 57.006-32.23 73.03-35.61M219.428 206.14l-.49.252c-2.727 1.434-6.3 2.135-10.918 2.135-2.75 0-5.445-.23-8.433-.5-5.966-.546-16.066-1.734-16.17-1.753l-.77-.08-.612-.494c-.093-.06-8.936-7.115-16.086-12.736-.293-.236-.555-.46-.795-.65-.754-.645-.754-.645-1.204-.645-2.294 0-8.96 2.07-23.562 6.592l-.896.287-.887-.338c-.1-.025-9.678-3.577-21.16-3.577-.94 0-1.878.023-2.79.068-1.15.06-7.602 3.125-15.86 16.18l-.53.842-.95.304c-.137.044-14.343 4.628-29.41 8.937l-.973.275-.93-.43c-.097-.032-5.98-2.768-11.59-5.34.414.193.83.38 1.244.573 5.536 4.778 16.137 13.968 17.314 15.24.163.184.39.408.66.662-.273-.31-.538-.628-.798-.95-.003 0-.007-.006-.01-.01v.002-.002c2.443 2.316 5.17 4.317 8.147 5.725 1.485.698 3.043 1.24 4.627 1.502.8.13 1.574.196 2.383.196.82 0 1.656-.023 2.492-.064 3.312-.17 6.655-.424 9.99-.747 3.33-.3 6.663-.634 9.99-1.038 3.323-.358 6.646-.776 9.94-1.287 1.65-.24 3.29-.513 4.892-.868.787-.186 1.607-.39 2.23-.67.57-.273 1.258-.82 1.864-1.34 1.24-1.068 2.437-2.252 3.622-3.43a151.594 151.594 0 0 0 3.504-3.625c1.95-2.043 3.623-4.213 5.512-6.316.242-.262.49-.54.74-.81 0 .005 0 .005.004.005l.022.026c.394.283.787.57 1.172.872 2.273 1.695 4.62 3.53 6.884 5.114 2.92 2.05 5.874 4.106 8.93 5.816.764.425 1.553.822 2.306 1.07.098.037.18.054.255.065.055.034.256.066.28.066.148.02.347.03.54.044.41.005.837-.013 1.264-.033 1.724-.118 3.473-.37 5.224-.644 3.495-.545 7-1.174 10.484-1.872 3.492-.668 6.98-1.384 10.446-2.155 3.483-.738 6.95-1.553 10.392-2.42 1.71-.46 3.424-.885 4.95-1.618 1.56-.726 3.008-1.722 4.34-2.864 2.69-2.29 4.952-5.13 6.83-8.224l-.004.01a37.035 37.035 0 0 0 2.352-5.334M154.242 41.817h6.15v-12.49h-44.96v12.49h6.148v-6.343h12.714V74.05h-5.234v7.158h17.7v-7.16h-5.235V35.475h12.717v6.343" fill="#93232C"/><path d="M200.762 112.15a.07.07 0 0 0-.036-.01 708.54 708.54 0 0 0-7.64-.534c-.048-.003-.097-.005-.146-.01-11.912 10.44-35.426 18.33-41.355 20.208-.115.098-.228.196-.343.292 7.632-1.374 19.032-4.098 30.864-9.337 5.82-2.577 11.742-5.758 17.376-9.692.435-.3.857-.617 1.28-.918M139.005 109.703c-22.428 5.67-36.85 14.275-42.26 17.91a226.918 226.918 0 0 1 15.248-7.06 308.696 308.696 0 0 1 1.873-.772c.197-.08.39-.162.588-.24.52-.21 1.044-.416 1.57-.627.295-.114.585-.23.88-.344.475-.187.954-.372 1.436-.556.36-.137.72-.275 1.086-.41.442-.17.887-.336 1.336-.5.42-.155.844-.308 1.265-.46.416-.152.83-.3 1.248-.45.477-.168.958-.334 1.442-.503.382-.13.762-.263 1.146-.394.566-.19 1.136-.38 1.71-.568.314-.104.626-.208.942-.31.896-.292 1.802-.58 2.714-.858 1.988-.61 4.022-1.194 6.09-1.755 2.693-.732 5.44-1.42 8.246-2.038-2.186-.037-4.374-.05-6.56-.064M96.405 110.734c-16.024 3.38-45.837 12.41-73.03 35.61-.26.3-.52.6-.773.907 13.823-9.608 37.583-23.893 66.957-32.583.946-.28 1.902-.553 2.86-.823a189.317 189.317 0 0 1 15.048-3.562c-3.685.13-7.374.284-11.063.452M224.722 203.578a68.936 68.936 0 0 0-.842.393c-.153.07-.3.14-.454.21-.12.058-.24.116-.364.174l-.556.265c-.076.038-.157.074-.236.115-.21.1-.42.197-.623.298l-.137.068c-.223.11-.445.218-.66.325l-.07.033c-.477.236-.93.464-1.352.68a37.027 37.027 0 0 1-2.36 5.34l.01-.013c-.004.006-.01.01-.012.02-1.876 3.078-4.135 5.91-6.818 8.198-1.333 1.143-2.782 2.14-4.34 2.865-1.53.733-3.24 1.157-4.95 1.62-3.442.865-6.91 1.68-10.394 2.416-3.464.772-6.952 1.488-10.444 2.155-3.486.7-6.99 1.328-10.487 1.872-1.75.274-3.497.525-5.223.644a20.45 20.45 0 0 1-1.263.033 6.696 6.696 0 0 1-.542-.046 1.04 1.04 0 0 1-.278-.065 1.05 1.05 0 0 1-.256-.066c-.754-.246-1.54-.647-2.304-1.07-3.056-1.712-6.013-3.765-8.932-5.816-2.26-1.585-4.612-3.42-6.884-5.115l-.198.28.014.016c.14.127.284.245.425.37-.002-.003-.005-.005-.01-.007-.103-.078-.202-.154-.298-.224l1.904 2.27c.006.008.078.096.218.26.972 1.14 5.04 5.86 9.87 10.652 3.677 3.645 8.113 5.486 13.202 5.486 1.737 0 3.563-.228 5.408-.667 1.706-.418 3.563-.86 5.465-1.32 5.64-1.342 11.89-2.84 16.037-3.916l.803-.21c.587-.156 1.12-.298 1.595-.43a45.104 45.104 0 0 1 2.45-.605c5.03-1.168 11.91-2.764 15.553-10.067a734.722 734.722 0 0 1 3.31-6.516 1452.445 1452.445 0 0 1 5.518-10.613c0-.002.002-.002.002-.002l.362-.692-.858.398M142.343 219.332l-.327-.31c-1.89 2.104-3.563 4.274-5.512 6.318a151.594 151.594 0 0 1-3.504 3.623c-1.185 1.18-2.383 2.367-3.622 3.43-.607.522-1.296 1.07-1.864 1.34-.622.28-1.443.486-2.23.67-1.6.357-3.242.63-4.892.87-3.293.51-6.617.93-9.94 1.286-3.327.403-6.66.737-9.99 1.036-3.334.323-6.678.577-9.99.75-.836.037-1.673.063-2.492.063-.81 0-1.586-.065-2.383-.198-1.585-.262-3.143-.804-4.628-1.5-2.978-1.41-5.704-3.41-8.147-5.725.002 0 .006.006.01.008.33.406.692.787 1.038 1.174-.082-.078-.162-.155-.24-.227-.27-.253-.497-.477-.66-.66-1.18-1.275-11.78-10.463-17.315-15.24-.414-.194-.83-.382-1.243-.574.98 1.45 2.055 3.025 3.17 4.63a286.457 286.457 0 0 0 5 6.992 161.28 161.28 0 0 0 2.23 2.946c6.018 7.743 13.592 14.898 28.127 14.898 1.82 0 3.756-.112 5.744-.337.463-.052.913-.103 1.356-.156.426-.048.845-.095 1.25-.143 12.64-1.452 16.107-2.072 18.03-2.404.5-.086.924-.16 1.384-.23.18-.024.362-.053.556-.078.07-.007 4.344-.556 8.522-2.59 2.88-1.397 5.712-3.5 7.097-6.606 3.497-7.825 4.208-9.695 4.236-9.765l1.227-3.295" fill="#731B2A"/><path d="M176.582 148.282a2.805 2.805 0 0 0 2.748-2.85 2.79 2.79 0 0 0-2.853-2.75 2.795 2.795 0 0 0-2.745 2.852 2.8 2.8 0 0 0 2.85 2.748zm17.22 12.613c-3.697-1.787-7.74.475-15.1.613-5.483.196-10.077.255-10.38-8.344-.302-8.618 3.204-15.74 8.685-15.93 5.477-.192 10.478 6.635 11.15 15.225.186 2.37-.076 4.096-.662 5.376 5.092-.608 6.253 2.85 6.308 3.06zM98.092 150.36a2.8 2.8 0 0 0 2.722-2.87 2.803 2.803 0 0 0-2.874-2.728 2.798 2.798 0 1 0 .152 5.597zm8.464 4.507c.08 8.606-4.476 8.088-9.96 8.142-.558.017-1.083.024-1.61.024a38.22 38.22 0 0 1-1.768.013c-5.324-.013-8.723-.25-11.734 1.376.07-.186 1.394-3.14 6.17-4.345-.527-1.163-.858-2.78-.945-5.02-.33-8.602 4.977-15.656 10.457-15.706 5.48-.054 9.307 6.908 9.39 15.515zM210.354 95.688a41.646 41.646 0 0 1-.15 1.586 188.413 188.413 0 0 0-6.545-1.64c-7.242-1.59-14.57-2.77-21.935-3.61-.254-.033-.513-.05-.773-.082.05-.11.095-.22.128-.328.22-.804.412-1.61.595-2.415 1.898-8.4 1.8-16.767 1.585-20.816l26.19 7.447c1.427 9.308 1.15 16.61.904 19.858zM177.778 90.7c-.088.3-.076.613 0 .903a339.6 339.6 0 0 0-8.23-.76c3.077-6.45 3.75-13.318 3.9-15.74 2.363-1.676 4.713-3.693 6.44-5.26.157 4.62.044 13.01-2.11 20.857zm-80.697.886c.075-.278.08-.586 0-.886-2.148-7.837-2.263-16.224-2.115-20.858 1.732 1.568 4.077 3.585 6.45 5.262.142 2.42.814 9.272 3.89 15.723-2.744.216-5.486.47-8.224.76zm-3.954.432c-3.674.448-7.352.91-11.012 1.518-3.65.625-7.3 1.29-10.92 2.093-2.195.51-4.37 1.05-6.547 1.638-.02-.172-.047-.437-.078-.778-.253-2.7-.73-10.476.837-20.662L91.59 68.38c-.197 3.898-.304 11.795 1.38 19.872.233 1.12.5 2.243.805 3.36.034.11.078.218.126.317-.262.032-.514.055-.774.088zm131.265 10.574c-.222-.107-.442-.216-.653-.32-.324-.156-.683-.334-1.094-.534a6.786 6.786 0 0 1-.73-.41c-2.422-1.12-4.962-1.988-7.498-2.82-.3-.098-.596-.186-.896-.274a1.88 1.88 0 0 0 .057-.23c.037-.286.688-5.102.295-12.693-.166-3.24-.525-6.988-1.204-11.108a1.724 1.724 0 0 0-1.222-1.372l-3.733-1.056c-.802-28.886-12.695-42.46-13.067-42.88 10.624 17.1 10.53 37.378 10.346 42.104l-23.145-6.58c-.017 0-.032 0-.054-.01a2.186 2.186 0 0 0-.296-.043c-.022 0-.047-.004-.085-.004a1.436 1.436 0 0 0-.38.033c-.017 0-.037.017-.06.017a1.28 1.28 0 0 0-.3.103c-.037.017-.07.04-.103.05-.078.053-.154.097-.23.152-.017.012-.04.022-.056.038-.022.016-.03.033-.043.044-.022.023-.048.038-.066.055-.02.023-.644.633-1.612 1.547.068-2.166.085-5.48-.16-9.524l-.076-1.167c-.728-10.164-3.13-24.44-10.31-36.936.063.18.773 2.253 1.69 5.746 2.31 8.786 5.95 26.57 3.966 45.866-.01.088-.016.175-.025.264-.03.025-.063.048-.094.072a44.977 44.977 0 0 1-2.744 2.037 1.745 1.745 0 0 0-.755 1.393c0 .087-.202 8.714-4.01 16.06-.067.12-.102.24-.14.366-9.477-.65-18.98-.928-28.473-.935-9.487.006-18.996.267-28.478.912-.04-.115-.077-.235-.132-.345-3.814-7.345-4.01-15.972-4.016-16.06a1.734 1.734 0 0 0-.748-1.393 44.85 44.85 0 0 1-2.85-2.11c-1.925-18.358 1.253-35.368 3.566-44.624 1.098-4.394 2.004-7.05 2.076-7.253C96.43 36.9 96.068 58.77 96.3 66.398c-.986-.914-1.597-1.523-1.613-1.547-.018-.016-.05-.03-.072-.054-.01-.01-.022-.028-.037-.045-.018-.014-.04-.024-.06-.036a2.16 2.16 0 0 0-.232-.14c-.037-.022-.065-.045-.11-.062a.838.838 0 0 0-.282-.093c-.028-.01-.05-.028-.067-.028a1.544 1.544 0 0 0-.384-.032c-.032 0-.066.004-.098.004-.094.01-.185.02-.283.044-.023.01-.034.01-.056.01l-23.137 6.58c-.187-4.728-.287-25.007 10.337-42.106-.368.423-12.26 13.998-13.068 42.884l-3.716 1.055a1.708 1.708 0 0 0-1.234 1.375A100.646 100.646 0 0 0 60.985 85.3c-.392 7.6.26 12.42.302 12.707.017.076.038.15.05.225-.296.092-.6.18-.897.273-2.54.832-5.09 1.704-7.514 2.828a6.68 6.68 0 0 1-.684.386s-.016.007-.038.02c-.413.2-.772.378-1.096.534l-.57.278c-.12.07-.243.13-.36.2 1.716-.673 3.492-1.165 5.266-1.6a97.486 97.486 0 0 1 5.366-1.177 175.24 175.24 0 0 1 10.848-1.694c3.624-.475 7.263-.868 10.908-1.173 3.646-.31 7.286-.618 10.94-.83 14.613-.864 29.264-1.137 43.92-1.142 14.66.01 29.31.24 43.92 1.138 3.657.21 7.296.516 10.948.825 3.65.31 7.277.708 10.9 1.184 3.635.437 7.253 1.016 10.85 1.69a90.79 90.79 0 0 1 5.36 1.18c1.787.436 3.553.928 5.274 1.602-.096-.058-.194-.108-.287-.162z" fill="#0E0F0D"/><path d="M141.525 35.474V74.05h5.235v7.158h-17.7v-7.16h5.234V35.475H121.58v6.344h-6.147v-12.49h44.958v12.49h-6.147v-6.345h-12.718zm23.495 10.962V24.703h-54.205v21.733h15.393v-6.344h3.458v29.33h-5.222v16.4h26.94v-16.4h-5.24V40.09h3.47v6.344h15.406z" fill="#0E0F0D"/><g fill="#2A2D2E"><path d="M57.662 297.815h-10.32v-5.347h26.92v5.347H63.99v30.356h-6.33v-30.355M73.687 301.37h5.193l.433 4.748h.226c1.902-3.494 4.744-5.402 7.583-5.402 1.367 0 2.238.16 3.055.54l-1.09 5.464c-.93-.278-1.64-.44-2.78-.44-2.13 0-4.695 1.477-6.336 5.514v16.377h-6.28v-26.8h-.005M101.476 323.91c2.185 0 3.876-1.09 5.84-2.95v-6.002c-7.25.925-9.652 2.836-9.652 5.51-.007 2.405 1.57 3.443 3.812 3.443zm5.84-12.88c-.05-2.837-1.25-5.237-4.852-5.237-2.676 0-5.19 1.2-7.54 2.614l-2.285-4.202c2.95-1.845 6.717-3.49 10.97-3.49 6.71 0 9.99 4.094 9.99 11.57v15.89h-5.132l-.493-2.956h-.152c-2.415 2.025-5.138 3.606-8.305 3.606-4.69 0-7.974-3.17-7.974-7.86-.004-5.736 4.802-8.736 15.77-9.936zM115.392 301.37h6.392l4.255 13.917c.704 2.62 1.527 5.35 2.237 8.08h.214c.77-2.737 1.54-5.46 2.292-8.08l4.26-13.917h6.057l-9.113 26.807h-7.263l-9.332-26.807M144.168 301.37h6.276v26.807h-6.276V301.37zm-.71-8.246c0-2.13 1.644-3.603 3.88-3.603 2.24 0 3.876 1.473 3.876 3.604 0 2.074-1.636 3.548-3.876 3.548-2.236 0-3.88-1.48-3.88-3.548zM156.99 321.075c2.403 1.85 4.695 3 7.427 3 2.897 0 4.26-1.363 4.26-3.222 0-2.236-2.902-3.215-5.732-4.312-3.553-1.306-7.535-3.332-7.535-7.803 0-4.69 3.765-8.023 9.773-8.023 3.71 0 6.71 1.517 8.895 3.218l-2.89 3.82c-1.86-1.37-3.77-2.29-5.9-2.29-2.672 0-3.932 1.255-3.932 2.947 0 2.074 2.676 2.947 5.558 3.985 3.66 1.36 7.693 3.107 7.693 8.13 0 4.58-3.648 8.3-10.416 8.3-3.646 0-7.532-1.592-10.153-3.72l2.954-4.03M205.405 291.815c4.365 0 7.917 2.128 10.15 4.535l-3.492 3.927c-1.86-1.8-3.874-2.947-6.602-2.947-5.846 0-10.05 4.908-10.05 12.94 0 8.128 3.877 13.044 9.828 13.044 3.16 0 5.51-1.31 7.537-3.547l3.488 3.877c-2.89 3.328-6.6 5.184-11.132 5.184-9.06 0-16.212-6.554-16.212-18.395 0-11.687 7.314-18.618 16.487-18.618M220.137 292.47h6.337v35.707h-6.337V292.47z"/></g></svg>